<svg width="16" height="16" version="1.1" viewBox="0 0 16 16" xmlns="http://www.w3.org/2000/svg">
 <defs>
  <style id="current-color-scheme" type="text/css">.ColorScheme-Text { color:#aaaaaa; } .ColorScheme-Highlight { color:#5294e2; }</style>
 </defs>
 <path style="fill:currentColor" class="ColorScheme-Text" d="m5 1c-0.554 0-1 0.446-1 1v1h8v-1c0-0.554-0.446-1-1-1zm-2 3c-1.108 0-2 0.892-2 2v2c0 1.108 0.892 2 2 2v-4h10v4c1.108 0 2-0.892 2-2v-2c0-1.108-0.892-2-2-2zm2 3c-0.554 0-1 0.446-1 1v6c0 0.554 0.446 1 1 1h6c0.554 0 1-0.446 1-1v-6c0-0.554-0.446-1-1-1z"/>
</svg>
