<svg xmlns="http://www.w3.org/2000/svg" width="16" height="16" version="1.1" viewBox="0 0 16 16">
 <defs>
  <style id="current-color-scheme" type="text/css">
   .ColorScheme-Text { color:#aaaaaa; } .ColorScheme-Highlight { color:#5294e2; }
  </style>
 </defs>
<path style="fill:currentColor" class="ColorScheme-Text" d="M8 0C5.784 0 4 1.821 4 4.062V5h2V4c0-1.109.892-2 2-2s2 .891 2 2v4H3c-.554 0-1 .446-1 1v6c0 .554.446 1 1 1h10c.554 0 1-.446 1-1V9c0-.554-.446-1-1-1h-1V4.062C12 1.822 10.216 0 8 0z"/></svg>
