<?xml version="1.0" encoding="UTF-8" standalone="no"?>
<!-- Generator: Gravit.io -->
<svg xmlns="http://www.w3.org/2000/svg" xmlns:xlink="http://www.w3.org/1999/xlink" style="isolation:isolate" viewBox="0 0 48 48" width="48pt" height="48pt"><path d=" M 24 47.5 C 10.9 47.5 0.3 37 0.3 24 C 0.3 11 10.9 0.5 24 0.5 C 37.1 0.5 47.7 11 47.7 24 C 47.7 37 37.1 47.5 24 47.5 Z  M 24 3.5 C 12.6 3.5 3.3 12.7 3.3 24 C 3.3 35.3 12.6 44.5 24 44.5 C 35.4 44.5 44.7 35.3 44.7 24 C 44.7 12.7 35.4 3.5 24 3.5 Z " fill="rgb(22,25,37)" fill-opacity="0.5"/><path d=" M 24.2 47.5 C 11.1 47.5 0.5 37 0.5 24 C 0.5 23.2 1.2 22.5 2 22.5 C 2.8 22.5 3.5 23.2 3.5 24 C 3.5 35.3 12.8 44.5 24.2 44.5 C 25 44.5 25.7 45.2 25.7 46 C 25.7 46.8 25 47.5 24.2 47.5 Z " fill="rgb(143,188,187)"/></svg>