<?xml version="1.0" encoding="UTF-8" standalone="no"?><!-- Generator: Gravit.io --><svg xmlns="http://www.w3.org/2000/svg" xmlns:xlink="http://www.w3.org/1999/xlink" style="isolation:isolate" viewBox="0 0 48 48" width="48pt" height="48pt"><linearGradient id="_lgradient_0" x1="0.21874999649848828" y1="0.17506041551987891" x2="1.098990208503709" y2="1.1181589937900303" gradientTransform="matrix(45,0,0,34,1.229,12.208)" gradientUnits="userSpaceOnUse"><stop offset="0%" stop-opacity="1" style="stop-color:rgb(252,203,144)"/><stop offset="83.91304347826087%" stop-opacity="1" style="stop-color:rgb(213,126,235)"/></linearGradient><path d=" M 20.104 15.447 L 20.107 15.445 L 45.923 15.465 C 46.092 15.466 46.229 15.603 46.229 15.772 L 46.229 45.892 C 46.229 46.061 46.092 46.198 45.923 46.198 L 1.545 46.208 C 1.376 46.208 1.238 46.071 1.238 45.902 L 1.229 18.688 L 15.61 18.743 C 15.616 18.743 15.623 18.743 15.63 18.742 L 1.243 18.683 L 1.247 12.515 C 1.247 12.346 1.385 12.208 1.554 12.208 L 15.61 12.208 C 15.695 12.208 15.819 12.249 15.887 12.3 L 20.104 15.447 Z " fill-rule="evenodd" fill="url(#_lgradient_0)"/><path d=" M 28.266 25.89 L 28.266 25.89 C 28.018 26.042 27.691 25.964 27.536 25.716 L 27.536 25.716 C 27.382 25.468 27.458 25.141 27.706 24.987 L 27.706 24.987 C 29.212 24.062 30.94 23.57 32.706 23.57 C 35.227 23.57 37.648 24.574 39.434 26.356 C 41.216 28.142 42.22 30.563 42.22 33.084 C 42.22 35.606 41.216 38.026 39.434 39.813 C 37.648 41.594 35.227 42.598 32.706 42.598 C 30.877 42.598 29.085 42.07 27.547 41.076 C 26.009 40.082 24.788 38.666 24.032 37.001 L 24.032 37.001 C 23.912 36.735 24.031 36.422 24.296 36.301 L 24.296 36.301 C 24.562 36.18 24.877 36.297 24.999 36.562 L 24.999 36.562 C 25.665 38.047 26.749 39.305 28.118 40.188 C 29.487 41.071 31.078 41.541 32.706 41.541 C 34.947 41.541 37.098 40.648 38.684 39.062 C 40.27 37.477 41.163 35.325 41.163 33.084 C 41.163 30.843 40.27 28.692 38.684 27.106 C 37.098 25.52 34.947 24.627 32.706 24.627 C 31.136 24.627 29.598 25.061 28.266 25.89 L 28.266 25.89 L 28.266 25.89 Z  M 24.328 34.263 L 24.328 34.263 C 24.36 34.552 24.15 34.812 23.86 34.844 L 23.86 34.844 C 23.57 34.876 23.308 34.666 23.276 34.374 L 23.276 34.374 L 23.223 33.845 L 23.223 33.845 C 23.191 33.557 23.401 33.296 23.691 33.264 L 23.691 33.264 C 23.981 33.232 24.243 33.443 24.275 33.734 L 24.275 33.734 L 24.328 34.263 L 24.328 34.263 L 24.328 34.263 Z  M 24.333 31.879 L 24.333 31.879 C 24.284 32.165 24.01 32.358 23.723 32.31 L 23.723 32.31 C 23.435 32.262 23.242 31.988 23.292 31.699 L 23.292 31.699 L 23.361 31.277 L 23.361 31.277 C 23.41 30.991 23.684 30.798 23.971 30.846 L 23.971 30.846 C 24.259 30.894 24.454 31.167 24.407 31.456 L 24.407 31.456 L 24.333 31.879 L 24.333 31.879 Z  M 36.591 34.353 L 36.591 34.353 C 36.865 34.455 37.005 34.759 36.903 35.032 L 36.903 35.032 C 36.8 35.305 36.495 35.443 36.221 35.341 L 36.221 35.341 L 31.649 33.629 L 31.649 28.507 L 31.649 28.507 C 31.649 28.215 31.885 27.978 32.177 27.978 L 32.177 27.978 C 32.469 27.978 32.706 28.215 32.706 28.507 L 32.706 28.507 L 32.706 32.894 L 36.591 34.353 Z " fill-rule="evenodd" fill="rgb(255,255,255)"/></svg>