<?xml version="1.0" encoding="UTF-8" standalone="no"?>
<!-- Created with Inkscape (http://www.inkscape.org/) -->

<svg
   width="512"
   height="512"
   viewBox="0 0 135.46666 135.46667"
   version="1.1"
   id="svg5"
   xml:space="preserve"
   xmlns="http://www.w3.org/2000/svg"
   xmlns:svg="http://www.w3.org/2000/svg"><defs
     id="defs2" /><g
     id="layer1"><path
       style="display:inline;fill:#1ed760;fill-opacity:1;stroke-width:0.562262"
       d="M 59.470873,127.56219 C 31.069214,123.61769 8.4371587,100.60944 5.9646849,73.166604 2.0873374,30.130589 43.51164,-2.7383616 86.496584,9.2669433 109.13435,15.589469 126.51033,34.315577 130.78119,56.9925 c 0.96213,5.108668 0.81519,17.081329 -0.27071,22.054976 -5.65374,25.895534 -26.56741,44.958214 -53.24732,48.534614 -5.078421,0.68077 -12.809522,0.67211 -17.792287,-0.0199 z"
       id="path179" /><path
       style="fill:#000000;stroke-width:0.0620734"
       d="m 93.033224,95.776718 c -0.468246,-0.1193 -1.357373,-0.553813 -2.869577,-1.402359 -1.51805,-0.851826 -4.098518,-2.096664 -5.739152,-2.768615 C 78.09877,89.014932 71.7334,87.599689 63.99059,87.062586 c -1.540493,-0.106867 -8.295669,-0.106971 -9.838547,0 -4.263863,0.29518 -7.210023,0.632484 -11.038631,1.263789 -2.373911,0.391435 -3.497249,0.612384 -4.88594,0.961004 -1.918746,0.48169 -2.70447,0.47401 -3.822341,-0.03735 -0.540128,-0.247079 -1.252557,-0.872599 -1.563124,-1.37244 -0.117465,-0.189058 -0.292874,-0.549933 -0.389797,-0.801949 -0.160858,-0.418255 -0.17659,-0.532795 -0.180426,-1.313538 -0.0067,-1.36715 0.271459,-2.101198 1.105798,-2.917974 0.659546,-0.645669 1.302041,-0.94416 2.654291,-1.233132 6.174536,-1.319477 12.169716,-2.123106 18.561643,-2.488105 1.734604,-0.09905 7.431785,-0.09918 9.144803,0 9.35673,0.540616 17.332764,2.323253 24.911706,5.567742 2.268636,0.971188 5.59988,2.671878 7.003273,3.57536 1.581906,1.018408 2.174685,2.047587 2.17213,3.771225 -0.0011,0.753659 -0.112493,1.251515 -0.403821,1.805095 -0.521797,0.991508 -1.518404,1.741184 -2.609826,1.963196 -0.457165,0.093 -1.358508,0.07859 -1.778557,-0.02843 z M 99.876059,79.776223 C 99.24923,79.643122 98.740123,79.412531 97.095314,78.516735 93.130789,76.357564 89.616549,74.826565 85.370509,73.40875 77.574016,70.805389 68.829226,69.303233 60.42727,69.124072 c -3.670275,-0.07827 -7.289973,0.04533 -10.532291,0.359623 -4.452674,0.431622 -9.155742,1.296377 -13.118062,2.412011 -1.110949,0.312799 -1.302969,0.349181 -1.98663,0.376411 -1.499933,0.05975 -2.605707,-0.349804 -3.661736,-1.356219 -1.153811,-1.099603 -1.645916,-2.560832 -1.41969,-4.215543 0.08816,-0.644819 0.372033,-1.509523 0.650164,-1.980438 0.432138,-0.731673 1.383907,-1.518655 2.322822,-1.920656 0.99919,-0.427808 6.341419,-1.711869 9.424283,-2.265225 7.874508,-1.413429 16.711245,-1.730762 25.510847,-0.916112 12.249666,1.134049 23.894122,4.514282 33.520433,9.730537 2.10203,1.139034 2.74077,1.562354 3.27104,2.167803 0.87388,0.997783 1.2454,2.036364 1.24952,3.492987 0.003,1.101619 -0.22025,1.856934 -0.81081,2.741788 -1.05098,1.574732 -3.121,2.418036 -4.971101,2.025184 z m 8.009591,-18.544709 c -0.87667,-0.105265 -1.55793,-0.362536 -2.77498,-1.047932 -10.209832,-5.749821 -24.820597,-9.287845 -41.082492,-9.948203 -1.984289,-0.08058 -7.636464,-0.08091 -9.466196,-5.54e-4 -7.724263,0.339217 -14.489632,1.310225 -20.263769,2.90838 -1.880871,0.520584 -2.696828,0.635308 -3.687497,0.518463 -3.042125,-0.358806 -5.187093,-2.745967 -5.185715,-5.771246 0.0011,-2.480469 1.307692,-4.516752 3.522277,-5.489483 0.511916,-0.224852 2.345257,-0.736342 4.329387,-1.207868 5.459918,-1.297542 11.055908,-2.11481 17.343592,-2.532949 5.123071,-0.340692 11.292884,-0.363308 16.586781,-0.0608 13.951286,0.797211 26.892476,3.636698 37.478812,8.223397 2.93355,1.27101 6.3183,3.016543 7.44709,3.840506 1.41841,1.035368 2.11322,2.324035 2.28473,4.23748 0.18846,2.102539 -0.63015,3.977265 -2.2691,5.196517 -1.18637,0.882564 -2.79489,1.310567 -4.26292,1.134292 z"
       id="path1180" /></g></svg>
