<?xml version="1.0" encoding="UTF-8" standalone="no"?>
<svg
   xmlns:osb="http://www.openswatchbook.org/uri/2009/osb"
   xmlns:dc="http://purl.org/dc/elements/1.1/"
   xmlns:cc="http://creativecommons.org/ns#"
   xmlns:rdf="http://www.w3.org/1999/02/22-rdf-syntax-ns#"
   xmlns:svg="http://www.w3.org/2000/svg"
   xmlns="http://www.w3.org/2000/svg"
   xmlns:sodipodi="http://sodipodi.sourceforge.net/DTD/sodipodi-0.dtd"
   xmlns:inkscape="http://www.inkscape.org/namespaces/inkscape"
   sodipodi:docname="switch-on.svg"
   inkscape:version="1.0 (4035a4fb49, 2020-05-01)"
   version="1.1"
   id="svg7539"
   height="20"
   width="50">
  <defs
     id="defs7541">
    <linearGradient
       osb:paint="solid"
       id="selected_bg_color">
      <stop
         id="stop4166"
         offset="0"
         style="stop-color:#5294e2;stop-opacity:1;" />
    </linearGradient>
    <linearGradient
       id="linearGradient4695-1-4-3-5-0-6">
      <stop
         offset="0"
         style="stop-color:#000000;stop-opacity:1;"
         id="stop4697-9-9-7-0-1-5" />
      <stop
         offset="1"
         style="stop-color:#000000;stop-opacity:0"
         id="stop4699-5-8-9-0-4-0" />
    </linearGradient>
    <linearGradient
       id="linearGradient3768-6">
      <stop
         id="stop3770-0"
         offset="0"
         style="stop-color:#0f0f0f;stop-opacity:1;" />
      <stop
         style="stop-color:#171717;stop-opacity:1;"
         offset="0.078125"
         id="stop3778-6" />
      <stop
         id="stop3774-2"
         offset="0.97355771"
         style="stop-color:#171717;stop-opacity:1;" />
      <stop
         id="stop3776-2"
         offset="1"
         style="stop-color:#1b1b1b;stop-opacity:1;" />
    </linearGradient>
    <linearGradient
       id="linearGradient3969-0-4">
      <stop
         id="stop3971-2-6"
         offset="0"
         style="stop-color:#353537;stop-opacity:1;" />
      <stop
         id="stop3973-0-1"
         offset="1"
         style="stop-color:#4d4f52;stop-opacity:1;" />
    </linearGradient>
    <linearGradient
       id="linearGradient3938">
      <stop
         style="stop-color:#ffffff;stop-opacity:0;"
         offset="0"
         id="stop3940" />
      <stop
         style="stop-color:#ffffff;stop-opacity:0.54901963;"
         offset="1"
         id="stop3942" />
    </linearGradient>
    <linearGradient
       id="linearGradient6523">
      <stop
         style="stop-color:#1a1a1a;stop-opacity:1;"
         offset="0"
         id="stop6525" />
      <stop
         style="stop-color:#1a1a1a;stop-opacity:0;"
         offset="1"
         id="stop6527" />
    </linearGradient>
    <linearGradient
       id="linearGradient3938-6">
      <stop
         style="stop-color:#bebebe;stop-opacity:1;"
         offset="0"
         id="stop3940-4" />
      <stop
         style="stop-color:#ffffff;stop-opacity:1;"
         offset="1"
         id="stop3942-8" />
    </linearGradient>
    <filter
       inkscape:collect="always"
       style="color-interpolation-filters:sRGB"
       id="filter930"
       x="-0.035999998"
       width="1.072"
       y="-0.035999998"
       height="1.072">
      <feGaussianBlur
         inkscape:collect="always"
         stdDeviation="0.225"
         id="feGaussianBlur932" />
    </filter>
  </defs>
  <sodipodi:namedview
     inkscape:document-rotation="0"
     inkscape:snap-bbox-edge-midpoints="true"
     inkscape:bbox-nodes="true"
     inkscape:bbox-paths="true"
     inkscape:snap-bbox-midpoints="false"
     inkscape:guide-bbox="true"
     showguides="true"
     inkscape:snap-bbox="true"
     inkscape:window-maximized="1"
     inkscape:window-y="0"
     inkscape:window-x="0"
     inkscape:window-height="712"
     inkscape:window-width="1366"
     fit-margin-bottom="0"
     fit-margin-right="0"
     fit-margin-left="0"
     fit-margin-top="0"
     inkscape:document-units="px"
     inkscape:grid-bbox="true"
     showgrid="true"
     inkscape:current-layer="layer1"
     inkscape:cy="16.13001"
     inkscape:cx="10.930796"
     inkscape:zoom="7.8257996"
     inkscape:pageshadow="2"
     inkscape:pageopacity="0.0"
     borderopacity="1.0"
     bordercolor="#666666"
     pagecolor="#ffffff"
     id="base">
    <inkscape:grid
       originy="2.6171874e-06"
       originx="-4"
       snapvisiblegridlinesonly="true"
       enabled="true"
       visible="true"
       empspacing="5"
       id="grid3019"
       type="xygrid" />
  </sodipodi:namedview>
  <metadata
     id="metadata7544">
    <rdf:RDF>
      <cc:Work
         rdf:about="">
        <dc:format>image/svg+xml</dc:format>
        <dc:type
           rdf:resource="http://purl.org/dc/dcmitype/StillImage" />
        <dc:title />
      </cc:Work>
    </rdf:RDF>
  </metadata>
  <g
     transform="translate(-120,87.999997)"
     inkscape:groupmode="layer"
     inkscape:label="Layer 1"
     id="layer1">
    <path
       style="fill:none;fill-opacity:1"
       d="m 127.35953,-77.145935 a 9.5,9.5 0 0 0 -0.0195,0.585938 9.5,9.5 0 0 0 9.5,9.5 h 7.5 2 7.5 a 9.5,9.5 0 0 0 9.5,-9.5 9.5,9.5 0 0 0 -0.0195,-0.414062 9.5,9.5 0 0 1 -9.48047,8.914062 h -7.5 -2 -7.5 a 9.5,9.5 0 0 1 -9.48047,-9.085938 z"
       id="path900" />
    <path
       style="fill:#81a1c1;fill-opacity:1;stroke:#81a1c1;stroke-opacity:1"
       d="m 137.34,-87.559997 a 9.5,9.5 0 0 0 -9.5,9.5 9.5,9.5 0 0 0 9.5,9.5 h 7.5 2 7.5 a 9.5,9.5 0 0 0 9.5,-9.5 9.5,9.5 0 0 0 -9.5,-9.5 h -7.5 -2 z"
       id="path872"
       inkscape:connector-curvature="0" />
    <rect
       style="color:#000000;display:inline;overflow:visible;visibility:visible;opacity:1;fill:#000000;fill-opacity:0.1;fill-rule:nonzero;stroke:none;stroke-width:1.76471;stroke-opacity:1;marker:none;filter:url(#filter930);enable-background:new"
       id="rect934"
       width="15"
       height="15"
       x="146.34"
       y="-83.560005"
       ry="7.392344" />
    <rect
       ry="7.392344"
       y="-84.560005"
       x="146.34"
       height="15"
       width="15"
       id="rect912"
       style="color:#000000;display:inline;overflow:visible;visibility:visible;opacity:1;fill:#000000;fill-opacity:0.2;fill-rule:nonzero;stroke:none;stroke-width:1.76471;stroke-opacity:1;marker:none;filter:url(#filter930);enable-background:new" />
    <rect
       style="color:#000000;display:inline;overflow:visible;visibility:visible;opacity:1;fill:#3b4252;fill-opacity:1;fill-rule:nonzero;stroke:none;stroke-width:1.76471;stroke-opacity:1;marker:none;enable-background:new"
       id="rect3872"
       width="15"
       height="15"
       x="146.34"
       y="-85.060005"
       ry="7.392344" />
    <path
       style="fill:none;fill-opacity:1"
       d="m 136.84,-87.059997 a 9.5,9.5 0 0 0 -9.5,9.5 9.5,9.5 0 0 0 0.0195,0.414062 9.5,9.5 0 0 1 9.48047,-8.914062 h 7.5 2 7.5 a 9.5,9.5 0 0 1 9.48047,9.085938 9.5,9.5 0 0 0 0.0195,-0.585938 9.5,9.5 0 0 0 -9.5,-9.5 h -7.5 -2 z"
       id="path902" />
    <path
       style="color:#000000;display:inline;overflow:visible;visibility:visible;opacity:1;fill:none;fill-opacity:0.2;fill-rule:nonzero;stroke:none;stroke-width:1.76471;stroke-opacity:1;marker:none;enable-background:new"
       d="m 153.73258,-85.059997 c -4.09536,0 -7.39258,3.29722 -7.39258,7.392578 v 0.214844 c 0,0.132603 0.0127,0.261734 0.0195,0.392578 0.20406,-3.910194 3.41029,-7 7.37305,-7 h 0.21484 c 3.96276,0 7.16899,3.089806 7.37305,7 0.007,-0.130844 0.0195,-0.259975 0.0195,-0.392578 v -0.214844 c 0,-4.095358 -3.29722,-7.392578 -7.39258,-7.392578 z"
       id="rect936" />
  </g>
</svg>
