<svg width="16" height="16" version="1.1" viewBox="0 0 16 16" xmlns="http://www.w3.org/2000/svg">
 <defs>
  <style id="current-color-scheme" type="text/css">.ColorScheme-Text { color:#aaaaaa; } .ColorScheme-Highlight { color:#5294e2; }</style>
 </defs>
 <path style="fill:currentColor" class="ColorScheme-Text" d="m3 1c-1.108 0-2 0.892-2 2v10c0 1.108 0.892 2 2 2h10c1.108 0 2-0.892 2-2v-10c0-1.108-0.892-2-2-2h-10zm2 2h1v1h0.5c0.65 0 1.2002 0.42 1.4102 1h-1.4102-0.5v1h0.5c0.83 0 1.5 0.67 1.5 1.5s-0.67 1.5-1.5 1.5h-0.5v1h-1v-1h-0.5c-0.65 0-1.2002-0.42-1.4102-1h1.4102 0.5v-1h-0.5c-0.83 0-1.5-0.67-1.5-1.5s0.67-1.5 1.5-1.5h0.5v-1zm-0.5 2c-0.28 0-0.5 0.22-0.5 0.5s0.22 0.5 0.5 0.5h0.5v-1h-0.5zm1.5 2v1h0.5c0.28 0.01 0.5-0.22 0.5-0.5s-0.22-0.5-0.5-0.5h-0.5zm3 2h4v1h-4v-1z"/>
</svg>
