<svg width="22" height="22" version="1.1" viewBox="0 0 22 22" xmlns="http://www.w3.org/2000/svg">
 <defs>
  <style id="current-color-scheme" type="text/css">.ColorScheme-Text { color:#aaaaaa; } .ColorScheme-Highlight { color:#5294e2; }</style>
 </defs>
 <path class="ColorScheme-Text" fill="currentColor" d="m11 4a7 7 0 0 0-7 7 7 7 0 0 0 7 7 7 7 0 0 0 7-7 7 7 0 0 0-7-7zm0 2a5 5 0 0 1 5 5 5 5 0 0 1-5 5 5 5 0 0 1-5-5 5 5 0 0 1 5-5zm-0.37695 1.002c-0.13229 0.01345-0.26446 0.02264-0.39258 0.04883-0.25722 0.05261-0.5019 0.12072-0.73828 0.2207-1.1297 0.4777-1.9815 1.4701-2.2852 2.6797 0.00779 0.0085 0.016421 0.01384 0.025391 0.02344 0.2119 0.22636 0.76793 0.54046 1.1797 0.68945 0.22518 0.08149 0.65931 0.2085 0.95703 0.26953 0.29774 0.06091 0.49613 0.12065 0.4668 0.12305-0.02933 0.0024-0.16254 0.10168-0.29492 0.2207-0.25251 0.22701-0.38111 0.42782-0.49023 0.78711-0.059878 0.19673-0.054498 0.26265 0.023438 0.36914 0.04703 0.06417 0.25763 0.21427 0.4668 0.34375s0.45378 0.30802 0.54102 0.39258c0.32499 0.315 0.54102 0.8786 0.54102 1.4258 0 0.14002 0.01321 0.21424 0.02344 0.24609 0.02658 0.0024 0.04756-0.0024 0.07422 0 0.06016-0.0232 0.15153-0.05125 0.29492-0.12305 1.2014-0.6014 1.7494-1.378 1.6953-2.4082-0.0431-0.82155-0.42784-1.12-1.9902-1.4512-1.1505-0.24383-1.7695-0.65834-1.7695-1.1797 0-0.13749 0.047066-0.21701 0.19727-0.36719 0.16143-0.16145 0.19357-0.17337 0.31836-0.14844 0.07946 0.01589 0.28558 0.12115 0.44336 0.24609 0.35518 0.28124 0.5292 0.39258 0.71289 0.39258 0.07825 0 0.14648-0.01172 0.14648-0.02344s-0.05888-0.10254-0.12305-0.19727c-0.35462-0.5225-0.33131-1.4993 0.05078-2.334 0.06-0.13104 0.10395-0.22092 0.09766-0.24609-0.05308 0.0031-0.11926-0.0055-0.17188 0zm3.6855 1.8438c-0.07148-0.04412-0.65157 0.56542-0.78516 0.83398-0.2649 0.5326-0.16559 0.88153 0.4668 1.5488 0.21909 0.23117 0.48191 0.54322 0.56445 0.68945 0.08253 0.14625 0.15254 0.26506 0.17187 0.24414 0.01934-0.02092 0.07768-0.18754 0.12305-0.36719 0.11923-0.4721 0.12853-1.2944 0-1.7695-0.09956-0.36801-0.44864-1.1226-0.54102-1.1797z"/>
</svg>
