<?xml version="1.0" encoding="UTF-8" standalone="no"?>
<!-- Created with Inkscape (http://www.inkscape.org/) -->

<svg
   xmlns:dc="http://purl.org/dc/elements/1.1/"
   xmlns:cc="http://creativecommons.org/ns#"
   xmlns:rdf="http://www.w3.org/1999/02/22-rdf-syntax-ns#"
   xmlns:svg="http://www.w3.org/2000/svg"
   xmlns="http://www.w3.org/2000/svg"
   xmlns:sodipodi="http://sodipodi.sourceforge.net/DTD/sodipodi-0.dtd"
   xmlns:inkscape="http://www.inkscape.org/namespaces/inkscape"
   width="16"
   height="16"
   id="svg2"
   version="1.1"
   inkscape:version="0.92.3 (2405546, 2018-03-11)"
   sodipodi:docname="close_prelight.svg"
   inkscape:export-filename="/home/lara/github/Nord/assets/close_prelight.png"
   inkscape:export-xdpi="96"
   inkscape:export-ydpi="96">
  <defs
     id="defs4" />
  <sodipodi:namedview
     id="base"
     pagecolor="#ffffff"
     bordercolor="#666666"
     borderopacity="1.0"
     inkscape:pageopacity="0.0"
     inkscape:pageshadow="2"
     inkscape:zoom="20.208354"
     inkscape:cx="8.2338311"
     inkscape:cy="5.267388"
     inkscape:document-units="px"
     inkscape:current-layer="g4092"
     showgrid="true"
     fit-margin-top="0"
     fit-margin-left="0"
     fit-margin-right="0"
     fit-margin-bottom="0"
     inkscape:window-width="1366"
     inkscape:window-height="713"
     inkscape:window-x="0"
     inkscape:window-y="25"
     inkscape:window-maximized="1" />
  <metadata
     id="metadata7">
    <rdf:RDF>
      <cc:Work
         rdf:about="">
        <dc:format>image/svg+xml</dc:format>
        <dc:type
           rdf:resource="http://purl.org/dc/dcmitype/StillImage" />
        <dc:title></dc:title>
      </cc:Work>
    </rdf:RDF>
  </metadata>
  <g
     inkscape:label="Layer 1"
     inkscape:groupmode="layer"
     id="layer1"
     transform="translate(-671.14288,-648.57648)">
    <g
       transform="matrix(0.1265625,0,0,-0.1265625,672.07092,663.09636)"
       inkscape:label="ink_ext_XXXXXX"
       id="g4090">
      <g
         transform="scale(0.1,0.1)"
         id="g4092">
        <path
           id="path4094"
           style="fill:#232831;fill-opacity:1;fill-rule:evenodd;stroke:none;stroke-width:1.14285719"
           d="m 564.89251,-113.74869 c 349.09263,0 632.09319,283.00099 632.09319,632.09804 0,349.09856 -283.00056,632.09915 -632.09319,632.09915 -349.10297,0 -632.104326,-283.00059 -632.104326,-632.09915 0,-349.09705 283.001356,-632.09804 632.104326,-632.09804"
           inkscape:connector-curvature="0"
           inkscape:export-xdpi="96"
           inkscape:export-ydpi="96" />
        <path
           id="path4096"
           style="fill:#bf616a;fill-opacity:1;fill-rule:evenodd;stroke:none"
           d="m 558.77747,1.5676633 c 283.63699,0 513.57493,229.9429467 513.57493,513.5851867 0,283.64355 -229.93794,513.58155 -513.57493,513.58155 -283.64749,0 -513.585581,-229.938 -513.585581,-513.58155 0,-283.64224 229.938091,-513.5851867 513.585581,-513.5851867"
           inkscape:connector-curvature="0"
           inkscape:export-xdpi="96"
           inkscape:export-ydpi="96" />
        <path
           inkscape:connector-curvature="0"
           id="path4098"
           d="m 333.8058,789.41038 c -11.82062,0 -23.65919,-4.6089 -32.62872,-13.5784 l -0.81065,-0.8107 c -17.9404,-17.9391 -17.9404,-47.3184 0,-65.2574 L 498.97607,511.1542 300.36643,312.34191 c -17.93514,-17.93385 -17.93514,-47.11575 0,-65.05478 l 0.81065,-1.01333 c 17.93381,-17.93903 47.31838,-17.93903 65.25744,0 L 565.04417,444.88342 763.65382,246.27377 c 17.93512,-17.93902 47.31837,-17.93902 65.25745,0 l 0.81067,1.01334 c 17.93382,17.93383 17.93382,47.12093 0,65.05477 L 631.11227,511.1542 829.72192,709.76388 c 17.93382,17.939 17.93908,47.3236 0,65.2574 l -0.81067,0.8107 c -17.94433,17.9338 -47.32233,17.9338 -65.25746,0 L 565.04417,577.2223 366.43452,775.83198 c -8.96954,8.9695 -20.80811,13.5784 -32.62872,13.5784 z"
           style="fill:#231d2b;fill-opacity:1;fill-rule:evenodd;stroke:none;stroke-width:1.06803441" />
      </g>
    </g>
  </g>
</svg>
