<?xml version="1.0" encoding="UTF-8" standalone="no"?>
<!-- Created with Inkscape (http://www.inkscape.org/) -->

<svg
   xmlns:dc="http://purl.org/dc/elements/1.1/"
   xmlns:cc="http://creativecommons.org/ns#"
   xmlns:rdf="http://www.w3.org/1999/02/22-rdf-syntax-ns#"
   xmlns:svg="http://www.w3.org/2000/svg"
   xmlns="http://www.w3.org/2000/svg"
   xmlns:sodipodi="http://sodipodi.sourceforge.net/DTD/sodipodi-0.dtd"
   xmlns:inkscape="http://www.inkscape.org/namespaces/inkscape"
   width="12"
   height="13"
   id="svg2"
   version="1.1"
   inkscape:version="0.48.4 r9939"
   sodipodi:docname="max.svg">
  <defs
     id="defs4" />
  <sodipodi:namedview
     id="base"
     pagecolor="#ffffff"
     bordercolor="#666666"
     borderopacity="1.0"
     inkscape:pageopacity="0.0"
     inkscape:pageshadow="2"
     inkscape:zoom="16"
     inkscape:cx="-1.6867461"
     inkscape:cy="5.8093116"
     inkscape:document-units="px"
     inkscape:current-layer="g4287"
     showgrid="true"
     fit-margin-top="0"
     fit-margin-left="0"
     fit-margin-right="0"
     fit-margin-bottom="0"
     inkscape:window-width="1280"
     inkscape:window-height="751"
     inkscape:window-x="0"
     inkscape:window-y="24"
     inkscape:window-maximized="1" />
  <metadata
     id="metadata7">
    <rdf:RDF>
      <cc:Work
         rdf:about="">
        <dc:format>image/svg+xml</dc:format>
        <dc:type
           rdf:resource="http://purl.org/dc/dcmitype/StillImage" />
        <dc:title></dc:title>
      </cc:Work>
    </rdf:RDF>
  </metadata>
  <g
     inkscape:label="Layer 1"
     inkscape:groupmode="layer"
     id="layer1"
     transform="translate(-671.14288,-651.57648)">
    <g
       transform="matrix(0.1265625,0,0,-0.1265625,672.07092,663.09636)"
       inkscape:label="ink_ext_XXXXXX"
       id="g4090">
      <g
         transform="scale(0.1,0.1)"
         id="g4092">
        <g
           transform="matrix(9.9999999,0,0,9.9999999,-4.0034923,0.11816995)"
           inkscape:label="ink_ext_XXXXXX"
           id="g4285">
          <g
             transform="scale(0.1,0.1)"
             id="g4287">
            <g
               transform="matrix(9.9999999,0,0,9.9999999,0.45158899,-5.5533388)"
               inkscape:label="ink_ext_XXXXXX"
               id="g4371">
              <g
                 transform="scale(0.1,0.1)"
                 id="g4373">
                <path
                   id="path4375"
                   style="fill:#13c11e;fill-opacity:1;fill-rule:evenodd;stroke:none"
                   d="M 437.004,9.64453 C 673.063,9.64453 864.43,201.012 864.43,437.07 864.43,673.133 673.063,864.5 437.004,864.5 200.938,864.5 9.57031,673.133 9.57031,437.07 9.57031,201.012 200.938,9.64453 437.004,9.64453"
                   inkscape:connector-curvature="0" />
                <path
                   id="path4377"
                   style="fill:#13c11e;fill-opacity:1;fill-rule:evenodd;stroke:none"
                   d="m 437.004,45.9961 c 215.984,0 391.074,175.0939 391.074,391.0739 0,215.989 -175.09,391.078 -391.074,391.078 C 221.016,828.148 45.9258,653.059 45.9258,437.07 45.9258,221.09 221.016,45.9961 437.004,45.9961"
                   inkscape:connector-curvature="0" />
                <path
                   id="path4379"
                   style="fill:#0b7407;fill-opacity:1;fill-rule:evenodd;stroke:none"
                   d="m 321.367,655.176 267.199,0 c 35.579,0 64.692,-29.11 64.692,-64.692 l 0,-267.195 -331.891,331.887 z m 232.324,-436.207 -268.253,0 c -35.583,0 -64.692,29.109 -64.692,64.691 l 0,268.254 332.945,-332.945"
                   inkscape:connector-curvature="0" />
              </g>
            </g>
          </g>
        </g>
      </g>
    </g>
  </g>
</svg>
