<?xml version="1.0" encoding="UTF-8" standalone="no"?>
<!-- Created with Inkscape (http://www.inkscape.org/) -->

<svg
   xmlns:dc="http://purl.org/dc/elements/1.1/"
   xmlns:cc="http://creativecommons.org/ns#"
   xmlns:rdf="http://www.w3.org/1999/02/22-rdf-syntax-ns#"
   xmlns:svg="http://www.w3.org/2000/svg"
   xmlns="http://www.w3.org/2000/svg"
   xmlns:sodipodi="http://sodipodi.sourceforge.net/DTD/sodipodi-0.dtd"
   xmlns:inkscape="http://www.inkscape.org/namespaces/inkscape"
   width="12"
   height="13"
   id="svg2"
   version="1.1"
   inkscape:version="0.48.4 r9939"
   sodipodi:docname="min.svg">
  <defs
     id="defs4" />
  <sodipodi:namedview
     id="base"
     pagecolor="#ffffff"
     bordercolor="#666666"
     borderopacity="1.0"
     inkscape:pageopacity="0.0"
     inkscape:pageshadow="2"
     inkscape:zoom="32"
     inkscape:cx="5.1747456"
     inkscape:cy="6.258007"
     inkscape:document-units="px"
     inkscape:current-layer="g4415"
     showgrid="true"
     fit-margin-top="0"
     fit-margin-left="0"
     fit-margin-right="0"
     fit-margin-bottom="0"
     inkscape:window-width="1280"
     inkscape:window-height="751"
     inkscape:window-x="0"
     inkscape:window-y="24"
     inkscape:window-maximized="1" />
  <metadata
     id="metadata7">
    <rdf:RDF>
      <cc:Work
         rdf:about="">
        <dc:format>image/svg+xml</dc:format>
        <dc:type
           rdf:resource="http://purl.org/dc/dcmitype/StillImage" />
        <dc:title></dc:title>
      </cc:Work>
    </rdf:RDF>
  </metadata>
  <g
     inkscape:label="Layer 1"
     inkscape:groupmode="layer"
     id="layer1"
     transform="translate(-671.14288,-651.57648)">
    <g
       transform="matrix(0.1265625,0,0,-0.1265625,672.07092,663.09636)"
       inkscape:label="ink_ext_XXXXXX"
       id="g4090">
      <g
         transform="scale(0.1,0.1)"
         id="g4092">
        <g
           transform="matrix(9.9999999,0,0,9.9999999,-4.0034923,0.11816995)"
           inkscape:label="ink_ext_XXXXXX"
           id="g4285">
          <g
             transform="scale(0.1,0.1)"
             id="g4287">
            <g
               transform="matrix(10,0,0,10,4.1388913,2.0175489)"
               inkscape:label="ink_ext_XXXXXX"
               id="g4413">
              <g
                 transform="scale(0.1,0.1)"
                 id="g4415">
                <g
                   transform="matrix(10.000001,0,0,10.000001,-2.63607,-7.9909082)"
                   inkscape:label="ink_ext_XXXXXX"
                   id="g4491">
                  <g
                     transform="scale(0.1,0.1)"
                     id="g4493">
                    <path
                       id="path4495"
                       style="fill:#fac536;fill-opacity:1;fill-rule:evenodd;stroke:none"
                       d="m 435.832,9.64453 c 236.066,0 427.434,191.36747 427.434,427.42547 0,236.063 -191.368,427.43 -427.434,427.43 C 199.77,864.5 8.40234,673.133 8.40234,437.07 8.40234,201.012 199.77,9.64453 435.832,9.64453"
                       inkscape:connector-curvature="0" />
                    <path
                       id="path4497"
                       style="fill:#fac536;fill-opacity:1;fill-rule:evenodd;stroke:none"
                       d="M 435.832,45.9961 C 651.82,45.9961 826.91,221.09 826.91,437.07 826.91,653.059 651.82,828.148 435.832,828.148 219.848,828.148 44.7578,653.059 44.7578,437.07 44.7578,221.09 219.848,45.9961 435.832,45.9961"
                       inkscape:connector-curvature="0" />
                    <path
                       id="path4499"
                       style="fill:#975914;fill-opacity:1;fill-rule:evenodd;stroke:none"
                       d="m 186.305,472.652 499.058,0 c 19.313,0 35.114,-15.8 35.114,-35.117 l 0,-0.93 c 0,-19.316 -15.801,-35.113 -35.114,-35.113 l -499.058,0 c -19.317,0 -35.114,15.797 -35.114,35.113 l 0,0.93 c 0,19.317 15.797,35.117 35.114,35.117"
                       inkscape:connector-curvature="0" />
                  </g>
                </g>
              </g>
            </g>
          </g>
        </g>
      </g>
    </g>
  </g>
</svg>
