<?xml version="1.0" encoding="UTF-8" standalone="no"?>
<!-- Created with Inkscape (http://www.inkscape.org/) -->

<svg
   xmlns:dc="http://purl.org/dc/elements/1.1/"
   xmlns:cc="http://creativecommons.org/ns#"
   xmlns:rdf="http://www.w3.org/1999/02/22-rdf-syntax-ns#"
   xmlns:svg="http://www.w3.org/2000/svg"
   xmlns="http://www.w3.org/2000/svg"
   xmlns:xlink="http://www.w3.org/1999/xlink"
   xmlns:sodipodi="http://sodipodi.sourceforge.net/DTD/sodipodi-0.dtd"
   xmlns:inkscape="http://www.inkscape.org/namespaces/inkscape"
   width="24"
   height="22"
   id="svg3199"
   version="1.1"
   inkscape:version="0.92.3 (2405546, 2018-03-11)"
   sodipodi:docname="checkbox-focused.svg">
  <defs
     id="defs3201">
    <linearGradient
       id="linearGradient15404"
       inkscape:collect="always">
      <stop
         id="stop15406"
         offset="0"
         style="stop-color:#515151;stop-opacity:1" />
      <stop
         id="stop15408"
         offset="1"
         style="stop-color:#292929;stop-opacity:1" />
    </linearGradient>
    <inkscape:perspective
       sodipodi:type="inkscape:persp3d"
       inkscape:vp_x="0 : 526.18109 : 1"
       inkscape:vp_y="0 : 1000 : 0"
       inkscape:vp_z="744.09448 : 526.18109 : 1"
       inkscape:persp3d-origin="372.04724 : 350.78739 : 1"
       id="perspective3207" />
    <inkscape:perspective
       id="perspective3187"
       inkscape:persp3d-origin="0.5 : 0.33333333 : 1"
       inkscape:vp_z="1 : 0.5 : 1"
       inkscape:vp_y="0 : 1000 : 0"
       inkscape:vp_x="0 : 0.5 : 1"
       sodipodi:type="inkscape:persp3d" />
    <linearGradient
       inkscape:collect="always"
       xlink:href="#linearGradient5872-5-1"
       id="linearGradient5891-0-4"
       gradientUnits="userSpaceOnUse"
       x1="205.84143"
       y1="246.7094"
       x2="206.74803"
       y2="231.24142" />
    <linearGradient
       inkscape:collect="always"
       id="linearGradient5872-5-1">
      <stop
         style="stop-color:#0b2e52;stop-opacity:1"
         offset="0"
         id="stop5874-4-4" />
      <stop
         style="stop-color:#1862af;stop-opacity:1"
         offset="1"
         id="stop5876-0-5" />
    </linearGradient>
    <inkscape:path-effect
       effect="spiro"
       id="path-effect5837-4-6"
       is_visible="true" />
    <inkscape:path-effect
       effect="spiro"
       id="path-effect14768"
       is_visible="true" />
    <inkscape:path-effect
       effect="spiro"
       id="path-effect5884-4-7"
       is_visible="true" />
    <linearGradient
       y2="-388.72955"
       x2="-93.031357"
       y1="-396.34738"
       x1="-93.031357"
       gradientTransform="matrix(1.5918367,0,0,0.85714285,-256.56122,59.685418)"
       gradientUnits="userSpaceOnUse"
       id="linearGradient14219"
       xlink:href="#linearGradient15404"
       inkscape:collect="always" />
    <linearGradient
       inkscape:collect="always"
       id="linearGradient10013-4-63-6">
      <stop
         style="stop-color:#333333;stop-opacity:1;"
         offset="0"
         id="stop10015-2-76-1" />
      <stop
         style="stop-color:#292929;stop-opacity:1"
         offset="1"
         id="stop10017-46-15-8" />
    </linearGradient>
    <linearGradient
       inkscape:collect="always"
       id="linearGradient10597-5">
      <stop
         style="stop-color:#16191a;stop-opacity:1;"
         offset="0"
         id="stop10599-2" />
      <stop
         style="stop-color:#2b3133;stop-opacity:1"
         offset="1"
         id="stop10601-5" />
    </linearGradient>
    <linearGradient
       y2="-322.16354"
       x2="921.22498"
       y1="-330.05121"
       x1="921.32812"
       gradientTransform="matrix(1.5918367,0,0,0.85714285,-1456.5464,275.45191)"
       gradientUnits="userSpaceOnUse"
       id="linearGradient15374"
       xlink:href="#linearGradient10013-4-63-6"
       inkscape:collect="always" />
    <linearGradient
       gradientTransform="translate(-1199.9852,216.38048)"
       y2="-227.07961"
       x2="1203.9177"
       y1="-217.56708"
       x1="1203.9177"
       gradientUnits="userSpaceOnUse"
       id="linearGradient15376"
       xlink:href="#linearGradient10597-5"
       inkscape:collect="always" />
    <linearGradient
       id="linearGradient5581-5-2-4-6-8-7-35-8">
      <stop
         id="stop5583-0-92-8-0-7-6-5-1"
         offset="0"
         style="stop-color:#454c4c;stop-opacity:1;" />
      <stop
         style="stop-color:#393f3f;stop-opacity:1;"
         offset="0.40000001"
         id="stop5585-4-7-2-7-9-9-92-0" />
      <stop
         id="stop5587-6-7-2-0-3-1-21-5"
         offset="1"
         style="stop-color:#2d3232;stop-opacity:1;" />
    </linearGradient>
    <filter
       inkscape:collect="always"
       style="color-interpolation-filters:sRGB"
       id="filter4588"
       x="-0.04320544"
       width="1.0864109"
       y="-0.053991504"
       height="1.107983">
      <feGaussianBlur
         inkscape:collect="always"
         stdDeviation="0.1804285"
         id="feGaussianBlur4590" />
    </filter>
  </defs>
  <sodipodi:namedview
     id="base"
     pagecolor="#a2a2a2"
     bordercolor="#2d2d2d"
     borderopacity="1"
     inkscape:pageopacity="1"
     inkscape:pageshadow="2"
     inkscape:zoom="20.804195"
     inkscape:cx="0.08294079"
     inkscape:cy="9.4065561"
     inkscape:document-units="px"
     inkscape:current-layer="layer1"
     showgrid="true"
     inkscape:window-width="1366"
     inkscape:window-height="713"
     inkscape:window-x="0"
     inkscape:window-y="25"
     inkscape:window-maximized="1"
     borderlayer="true"
     inkscape:showpageshadow="false"
     inkscape:snap-nodes="false"
     inkscape:snap-bbox="true"
     showborder="true">
    <inkscape:grid
       type="xygrid"
       id="grid14843"
       empspacing="5"
       visible="true"
       enabled="true"
       snapvisiblegridlinesonly="true" />
  </sodipodi:namedview>
  <metadata
     id="metadata3204">
    <rdf:RDF>
      <cc:Work
         rdf:about="">
        <dc:format>image/svg+xml</dc:format>
        <dc:type
           rdf:resource="http://purl.org/dc/dcmitype/StillImage" />
        <dc:title />
      </cc:Work>
    </rdf:RDF>
  </metadata>
  <g
     inkscape:label="Layer 1"
     inkscape:groupmode="layer"
     id="layer1"
     transform="translate(-342.5,-521.36218)">
    <rect
       style="color:#000000;fill:none;stroke:none;stroke-width:2;marker:none;visibility:visible;display:inline;overflow:visible;enable-background:accumulate"
       id="rect17347"
       width="21.943846"
       height="21.943846"
       x="342.29913"
       y="521.58435" />
    <path
       id="path4731"
       d="m 347,522.36218 c -2.493,0 -4.5,2.007 -4.5,4.5 l 0,12 c 0,2.493 2.007,4.5 4.5,4.5 l 12,0 c 2.493,0 4.5,-2.007 4.5,-4.5 l 0,-12 c 0,-2.493 -2.007,-4.5 -4.5,-4.5 l -12,0 z m 11.98242,4.48535 a 1.50015,1.50015 0 0 0 -0.14055,0.012 1.50015,1.50015 0 0 1 0.14055,-0.012 z m -0.73535,0.21386 a 1.50015,1.50015 0 0 0 -0.0908,0.0557 1.50015,1.50015 0 0 1 0.0908,-0.0557 z m -0.12599,0.0821 a 1.50015,1.50015 0 0 0 -0.0966,0.0762 1.50015,1.50015 0 0 1 0.0966,-0.0762 z m -0.0996,0.079 a 1.50015,1.50015 0 0 0 -0.0996,0.0968 1.50015,1.50015 0 0 1 0.0996,-0.0968 z m 2.37891,0.55373 a 1.50015,1.50015 0 0 1 0.0762,0.2578 1.50015,1.50015 0 0 0 -0.0762,-0.2578 z m -13.43848,3.56542 a 1.50015,1.50015 0 0 0 -0.11715,0.006 1.50015,1.50015 0 0 1 0.11715,-0.006 z m -0.34277,0.0439 a 1.50015,1.50015 0 0 0 -0.0762,0.0206 1.50015,1.50015 0 0 0 -0.14055,0.0498 1.50015,1.50015 0 0 1 0.14055,-0.0498 1.50015,1.50015 0 0 1 0.0762,-0.0206 z m 1.0869,0.14355 a 1.50015,1.50015 0 0 1 0.12601,0.0791 1.50015,1.50015 0 0 1 0.0937,0.0703 1.50015,1.50015 0 0 0 -0.0937,-0.0703 1.50015,1.50015 0 0 0 -0.12601,-0.0791 z m -1.47655,0.012 a 1.50015,1.50015 0 0 0 -0.0879,0.0528 1.50015,1.50015 0 0 1 0.0879,-0.0528 z m -0.70605,0.94043 a 1.50015,1.50015 0 0 0 -0.0206,0.0967 1.50015,1.50015 0 0 1 0.0206,-0.0967 z m 0.003,0.72949 a 1.50015,1.50015 0 0 0 0.0292,0.10545 1.50015,1.50015 0 0 0 0.0557,0.14055 1.50015,1.50015 0 0 1 -0.0557,-0.14055 1.50015,1.50015 0 0 1 -0.0292,-0.10545 z m 4.74022,5.03907 a 1.50015,1.50015 0 0 0 0.082,0.1026 1.50015,1.50015 0 0 1 -0.082,-0.1026 z m 0.57422,0.48047 a 1.50015,1.50015 0 0 0 0.126,0.0528 1.50015,1.50015 0 0 1 -0.126,-0.0528 z m 0.13185,0.0557 a 1.50015,1.50015 0 0 0 0.14355,0.0439 1.50015,1.50015 0 0 0 0.0821,0.0176 1.50015,1.50015 0 0 1 -0.0821,-0.0176 1.50015,1.50015 0 0 1 -0.14355,-0.0439 z"
       style="display:inline;opacity:1;fill:#d08770;fill-opacity:1;stroke:none;stroke-opacity:1;enable-background:new"
       inkscape:connector-curvature="0" />
    <path
       style="display:inline;opacity:1;fill:#ffffff;fill-opacity:0.2;stroke:none;stroke-opacity:1;enable-background:new"
       d="m 347,522.36218 c -2.493,0 -4.5,2.007 -4.5,4.5 l 0,1 c 0,-2.493 2.007,-4.5 4.5,-4.5 l 12,0 c 2.493,0 4.5,2.007 4.5,4.5 l 0,-1 c 0,-2.493 -2.007,-4.5 -4.5,-4.5 l -12,0 z"
       id="path4733"
       inkscape:connector-curvature="0" />
    <path
       style="display:inline;opacity:1;fill:#000000;fill-opacity:0.2;stroke:none;stroke-opacity:1;enable-background:new"
       d="m 342.5,537.86218 0,1 c 0,2.493 2.007,4.5 4.5,4.5 l 12,0 c 2.493,0 4.5,-2.007 4.5,-4.5 l 0,-1 c 0,2.493 -2.007,4.5 -4.5,4.5 l -12,0 c -2.493,0 -4.5,-2.007 -4.5,-4.5 z"
       id="path4735"
       inkscape:connector-curvature="0" />
    <path
       inkscape:connector-curvature="0"
       id="path4737"
       d="m 354.98783,531.85204 a 1.0001,1.0001 0 0 0 -0.75586,0.36915 l -4.29883,5.16015 -2.22656,-2.22656 a 1.0001,1.0001 0 1 0 -1.41407,1.41406 l 2.88477,2.88477 a 1.0001,1.0001 0 0 0 0.88477,0.41601 1.0001,1.0001 0 0 0 0.81054,-0.49219 l 4.89453,-5.875 a 1.0001,1.0001 0 0 0 -0.77929,-1.65039 z"
       style="color:#000000;font-style:normal;font-variant:normal;font-weight:normal;font-stretch:normal;font-size:medium;line-height:normal;font-family:sans-serif;text-indent:0;text-align:start;text-decoration:none;text-decoration-line:none;text-decoration-style:solid;text-decoration-color:#000000;letter-spacing:normal;word-spacing:normal;text-transform:none;direction:ltr;block-progression:tb;writing-mode:lr-tb;baseline-shift:baseline;text-anchor:start;white-space:normal;clip-rule:nonzero;display:inline;overflow:visible;visibility:visible;opacity:1;isolation:auto;mix-blend-mode:normal;color-interpolation:sRGB;color-interpolation-filters:linearRGB;solid-color:#000000;solid-opacity:1;fill:#000000;fill-opacity:0.2;fill-rule:evenodd;stroke:none;stroke-width:2;stroke-linecap:round;stroke-linejoin:miter;stroke-miterlimit:4;stroke-dasharray:none;stroke-dashoffset:0;stroke-opacity:1;filter:url(#filter4588);color-rendering:auto;image-rendering:auto;shape-rendering:auto;text-rendering:auto;enable-background:accumulate"
       transform="matrix(1.5,0,0,1.5,-172.75,-270.18109)" />
    <path
       style="color:#000000;font-style:normal;font-variant:normal;font-weight:normal;font-stretch:normal;font-size:medium;line-height:normal;font-family:sans-serif;text-indent:0;text-align:start;text-decoration:none;text-decoration-line:none;text-decoration-style:solid;text-decoration-color:#000000;letter-spacing:normal;word-spacing:normal;text-transform:none;direction:ltr;block-progression:tb;writing-mode:lr-tb;baseline-shift:baseline;text-anchor:start;white-space:normal;clip-rule:nonzero;display:inline;overflow:visible;visibility:visible;opacity:1;isolation:auto;mix-blend-mode:normal;color-interpolation:sRGB;color-interpolation-filters:linearRGB;solid-color:#000000;solid-opacity:1;fill:#ffffff;fill-opacity:1;fill-rule:evenodd;stroke:none;stroke-width:2;stroke-linecap:round;stroke-linejoin:miter;stroke-miterlimit:4;stroke-dasharray:none;stroke-dashoffset:0;stroke-opacity:1;color-rendering:auto;image-rendering:auto;shape-rendering:auto;text-rendering:auto;enable-background:accumulate"
       d="m 358.98242,526.84753 a 1.50015,1.50015 0 0 0 -1.13379,0.55372 l -6.44825,7.74023 -3.33984,-3.33984 a 1.50015,1.50015 0 1 0 -2.12109,2.12109 l 4.32715,4.32715 a 1.50015,1.50015 0 0 0 1.32715,0.62402 1.50015,1.50015 0 0 0 1.21582,-0.73829 l 7.3418,-8.8125 a 1.50015,1.50015 0 0 0 -1.16895,-2.47558 z"
       id="path4739"
       inkscape:connector-curvature="0" />
  </g>
</svg>
