<?xml version="1.0" encoding="UTF-8" standalone="no"?>
<svg
   width="32"
   height="32"
   version="1.1"
   viewBox="0 0 32 32"
   id="svg7"
   sodipodi:docname="folder-download.svg"
   inkscape:version="1.1 (c68e22c387, 2021-05-23)"
   xmlns:inkscape="http://www.inkscape.org/namespaces/inkscape"
   xmlns:sodipodi="http://sodipodi.sourceforge.net/DTD/sodipodi-0.dtd"
   xmlns="http://www.w3.org/2000/svg"
   xmlns:svg="http://www.w3.org/2000/svg">
  <sodipodi:namedview
     id="namedview9"
     pagecolor="#ffffff"
     bordercolor="#666666"
     borderopacity="1.0"
     inkscape:pageshadow="2"
     inkscape:pageopacity="0.0"
     inkscape:pagecheckerboard="0"
     showgrid="false"
     inkscape:zoom="9.3409091"
     inkscape:cx="10.973236"
     inkscape:cy="10.973236"
     inkscape:window-width="1920"
     inkscape:window-height="1019"
     inkscape:window-x="0"
     inkscape:window-y="36"
     inkscape:window-maximized="1"
     inkscape:current-layer="svg7" />
  <defs
     id="defs3">
    <style
       id="current-color-scheme"
       type="text/css">.ColorScheme-Text { color:#aaaaaa; } .ColorScheme-Highlight { color:#5294e2; }</style>
  </defs>
  <path
     class="ColorScheme-Text"
     d="m 16,8.0000457 c -0.63257,0 -1.142854,0.5102843 -1.142854,1.1428539 v 6.3838674 l -2.089251,-2.089251 c -0.447702,-0.447702 -1.16834,-0.447702 -1.61611,0 -0.44777,0.447702 -0.447702,1.168339 0,1.61611 l 4.029017,4.029017 c 0.108011,0.111096 0.238056,0.199119 0.38393,0.258925 0.276879,0.114902 0.588581,0.117382 0.866066,0.0045 0.0024,-9.92e-4 0.0042,-0.0034 0.0067,-0.0045 0.140022,-0.05773 0.267496,-0.142491 0.372765,-0.247771 L 20.85048,15.05358 c 0.447701,-0.447702 0.447701,-1.16834 0,-1.61611 -0.447702,-0.447701 -1.16834,-0.447701 -1.61611,0 l -2.091494,2.089251 V 9.1428539 C 17.142876,8.5102843 16.632592,8 16.000022,8 Z M 9.1428765,19.428584 v 2.285708 C 9.1428765,22.980574 10.162302,24 11.428584,24 h 9.142831 c 1.266282,0 2.285708,-1.019426 2.285708,-2.285708 v -2.285708 h -2.285708 v 2.285708 h -9.142831 v -2.285708 z"
     fill="currentColor"
     id="path5"
     style="stroke-width:1.14285" />
</svg>
