<?xml version="1.0" encoding="UTF-8" standalone="no"?>
<svg
   width="32"
   height="32"
   version="1.1"
   viewBox="0 0 32 32"
   id="svg7"
   sodipodi:docname="folder-music.svg"
   inkscape:version="1.1 (c68e22c387, 2021-05-23)"
   xmlns:inkscape="http://www.inkscape.org/namespaces/inkscape"
   xmlns:sodipodi="http://sodipodi.sourceforge.net/DTD/sodipodi-0.dtd"
   xmlns="http://www.w3.org/2000/svg"
   xmlns:svg="http://www.w3.org/2000/svg">
  <sodipodi:namedview
     id="namedview9"
     pagecolor="#ffffff"
     bordercolor="#666666"
     borderopacity="1.0"
     inkscape:pageshadow="2"
     inkscape:pageopacity="0.0"
     inkscape:pagecheckerboard="0"
     showgrid="false"
     inkscape:zoom="9.3409091"
     inkscape:cx="10.973236"
     inkscape:cy="10.973236"
     inkscape:window-width="1920"
     inkscape:window-height="1019"
     inkscape:window-x="0"
     inkscape:window-y="36"
     inkscape:window-maximized="1"
     inkscape:current-layer="svg7" />
  <defs
     id="defs3">
    <style
       id="current-color-scheme"
       type="text/css">.ColorScheme-Text { color:#aaaaaa; } .ColorScheme-Highlight { color:#5294e2; }</style>
  </defs>
  <path
     class="ColorScheme-Text"
     d="m 14.857143,7.9999885 c -1.266286,0 -2.285714,1.0194286 -2.285714,2.2857145 v 7.062514 C 12.206663,17.217977 11.822366,17.143679 11.428571,17.142857 9.5349714,17.142857 8,18.677828 8,20.571428 8,22.465028 9.5349714,24 11.428571,24 c 1.8936,0 3.428572,-1.534971 3.428572,-3.428571 V 10.285714 h 6.857143 v 7.062514 c -0.364766,-0.13024 -0.749063,-0.204536 -1.142857,-0.20536 -1.8936,0 -3.428572,1.534971 -3.428572,3.428571 0,1.8936 1.534972,3.428572 3.428572,3.428572 1.8936,0 3.428571,-1.534972 3.428571,-3.428572 V 10.285726 C 24,9.0194399 22.980571,8.0000114 21.714286,8.0000114 Z M 11.428571,19.428559 c 0.631178,0 1.142858,0.51168 1.142858,1.142858 0,0.631177 -0.51168,1.142857 -1.142858,1.142857 -0.631177,0 -1.142857,-0.51168 -1.142857,-1.142857 0,-0.631178 0.51168,-1.142858 1.142857,-1.142858 z m 9.142858,0 c 0.631177,0 1.142857,0.51168 1.142857,1.142858 0,0.631177 -0.51168,1.142857 -1.142857,1.142857 -0.631178,0 -1.142858,-0.51168 -1.142858,-1.142857 0,-0.631178 0.51168,-1.142858 1.142858,-1.142858 z"
     fill="currentColor"
     id="path5"
     style="stroke-width:1.14286" />
</svg>
