<?xml version="1.0" encoding="UTF-8" standalone="no"?>
<svg
   width="32"
   height="32"
   version="1.1"
   viewBox="0 0 32 32"
   id="svg7"
   sodipodi:docname="folder-network.svg"
   inkscape:version="1.1 (c68e22c387, 2021-05-23)"
   xmlns:inkscape="http://www.inkscape.org/namespaces/inkscape"
   xmlns:sodipodi="http://sodipodi.sourceforge.net/DTD/sodipodi-0.dtd"
   xmlns="http://www.w3.org/2000/svg"
   xmlns:svg="http://www.w3.org/2000/svg">
  <sodipodi:namedview
     id="namedview9"
     pagecolor="#ffffff"
     bordercolor="#666666"
     borderopacity="1.0"
     inkscape:pageshadow="2"
     inkscape:pageopacity="0.0"
     inkscape:pagecheckerboard="0"
     showgrid="false"
     inkscape:zoom="9.3409091"
     inkscape:cx="10.973236"
     inkscape:cy="10.973236"
     inkscape:window-width="1920"
     inkscape:window-height="1019"
     inkscape:window-x="0"
     inkscape:window-y="36"
     inkscape:window-maximized="1"
     inkscape:current-layer="svg7" />
  <defs
     id="defs3">
    <style
       id="current-color-scheme"
       type="text/css">.ColorScheme-Text { color:#aaaaaa; } .ColorScheme-Highlight { color:#5294e2; }</style>
  </defs>
  <path
     class="ColorScheme-Text"
     fill="currentColor"
     d="m 16,8 a 8,8 0 0 0 -8,8 8,8 0 0 0 8,8 8,8 0 0 0 8,-8 8,8 0 0 0 -8,-8 z m 0,2.285714 A 5.7142857,5.7142857 0 0 1 21.714286,16 5.7142857,5.7142857 0 0 1 16,21.714286 5.7142857,5.7142857 0 0 1 10.285714,16 5.7142857,5.7142857 0 0 1 16,10.285714 Z m -0.4308,1.145143 c -0.151189,0.01537 -0.30224,0.02587 -0.448663,0.05581 -0.293966,0.06013 -0.5736,0.137966 -0.843748,0.252229 -1.291086,0.545943 -2.264572,1.680114 -2.611658,3.062514 0.0089,0.0097 0.01877,0.01582 0.02902,0.02679 0.242172,0.258697 0.877635,0.617669 1.348229,0.787943 0.257349,0.09313 0.753497,0.238286 1.093749,0.308034 0.340274,0.06961 0.567006,0.137886 0.533486,0.140629 -0.03352,0.0027 -0.18576,0.116206 -0.337052,0.252229 -0.288583,0.25944 -0.435554,0.488937 -0.560263,0.899554 -0.06843,0.224834 -0.06228,0.300171 0.02679,0.421874 0.05375,0.07334 0.294434,0.24488 0.533485,0.392857 0.239052,0.147977 0.518606,0.352023 0.618309,0.448663 0.371417,0.36 0.618308,1.004114 0.618308,1.629486 0,0.160023 0.0151,0.244846 0.02679,0.281246 0.03038,0.0027 0.05435,-0.0027 0.08482,0 0.06875,-0.02651 0.173177,-0.05857 0.337051,-0.140629 1.373029,-0.687314 1.999315,-1.574857 1.937486,-2.752229 -0.04926,-0.938914 -0.48896,-1.28 -2.274514,-1.658514 -1.314857,-0.278663 -2.022286,-0.752388 -2.022286,-1.348228 0,-0.157132 0.05379,-0.248012 0.225452,-0.419646 0.184491,-0.184514 0.221222,-0.198137 0.363839,-0.169646 0.09081,0.01816 0.326378,0.138457 0.506698,0.281246 0.40592,0.321417 0.6048,0.448663 0.814731,0.448663 0.08943,0 0.167406,-0.0134 0.167406,-0.02679 0,-0.01339 -0.06729,-0.117188 -0.140629,-0.225451 -0.40528,-0.597143 -0.37864,-1.713486 0.05803,-2.667429 0.06857,-0.14976 0.1188,-0.25248 0.111612,-0.281245 -0.06066,0.0035 -0.136297,-0.0063 -0.196434,0 z m 4.212,2.1072 c -0.08169,-0.05042 -0.744651,0.646194 -0.897326,0.95312 -0.302743,0.608686 -0.189245,1.007463 0.533486,1.770057 0.250389,0.264195 0.550754,0.620823 0.645086,0.787943 0.09432,0.167143 0.174331,0.302926 0.196423,0.279017 0.0221,-0.02391 0.08878,-0.214331 0.140628,-0.419645 0.136263,-0.539543 0.146892,-1.479315 0,-2.022286 -0.113783,-0.420583 -0.512731,-1.282972 -0.618308,-1.348229 z"
     id="path5"
     style="stroke-width:1.14286" />
</svg>
