<?xml version="1.0" encoding="UTF-8" standalone="no"?>
<svg
   width="32"
   height="32"
   version="1.1"
   viewBox="0 0 32 32"
   id="svg7"
   sodipodi:docname="user-trash-full.svg"
   inkscape:version="1.1 (c68e22c387, 2021-05-23)"
   xmlns:inkscape="http://www.inkscape.org/namespaces/inkscape"
   xmlns:sodipodi="http://sodipodi.sourceforge.net/DTD/sodipodi-0.dtd"
   xmlns="http://www.w3.org/2000/svg"
   xmlns:svg="http://www.w3.org/2000/svg">
  <sodipodi:namedview
     id="namedview9"
     pagecolor="#ffffff"
     bordercolor="#666666"
     borderopacity="1.0"
     inkscape:pageshadow="2"
     inkscape:pageopacity="0.0"
     inkscape:pagecheckerboard="0"
     showgrid="false"
     inkscape:zoom="13.21004"
     inkscape:cx="7.3807496"
     inkscape:cy="11.014349"
     inkscape:window-width="1920"
     inkscape:window-height="1019"
     inkscape:window-x="0"
     inkscape:window-y="36"
     inkscape:window-maximized="1"
     inkscape:current-layer="svg7" />
  <defs
     id="defs3">
    <style
       id="current-color-scheme"
       type="text/css">.ColorScheme-Text { color:#aaaaaa; } .ColorScheme-Highlight { color:#5294e2; }</style>
  </defs>
  <path
     class="ColorScheme-Text"
     fill="currentColor"
     d="m 14.286438,8.0000114 c -1.142375,0 -1.142375,1.1423749 -1.142375,1.1423749 H 9.7169379 c 0,0 -1.1423749,0.00171 -1.1423749,1.1446597 v 1.14683 l 14.850874,-0.0045 v -1.142371 c 0,-1.1423754 -1.142375,-1.1446601 -1.142375,-1.1446601 h -3.427125 c 0,0 0,-1.1423749 -1.142375,-1.1423749 z M 9.7169379,12.576251 V 22.857625 C 9.716995,23.45575 10.261188,23.999943 10.859313,24 h 10.281374 c 0.598125,-5.7e-5 1.142318,-0.54425 1.142375,-1.142375 V 12.576251 h -2.28475 v 9.138999 h -7.996624 v -9.138999 z m 9.1389991,1.142375 -5.711874,1.142375 v 5.711874 h 5.711874 z"
     id="path5"
     style="stroke-width:1.14237" />
</svg>
