<?xml version="1.0" encoding="UTF-8" standalone="no"?>
<svg
   width="32"
   height="32"
   version="1.1"
   viewBox="0 0 32 32"
   id="svg7"
   sodipodi:docname="folder-publicshare.svg"
   inkscape:version="1.1 (c68e22c387, 2021-05-23)"
   xmlns:inkscape="http://www.inkscape.org/namespaces/inkscape"
   xmlns:sodipodi="http://sodipodi.sourceforge.net/DTD/sodipodi-0.dtd"
   xmlns="http://www.w3.org/2000/svg"
   xmlns:svg="http://www.w3.org/2000/svg">
  <sodipodi:namedview
     id="namedview9"
     pagecolor="#ffffff"
     bordercolor="#666666"
     borderopacity="1.0"
     inkscape:pageshadow="2"
     inkscape:pageopacity="0.0"
     inkscape:pagecheckerboard="0"
     showgrid="false"
     inkscape:zoom="13.21004"
     inkscape:cx="11.014349"
     inkscape:cy="11.014349"
     inkscape:window-width="1920"
     inkscape:window-height="1019"
     inkscape:window-x="0"
     inkscape:window-y="36"
     inkscape:window-maximized="1"
     inkscape:current-layer="svg7" />
  <defs
     id="defs3">
    <style
       id="current-color-scheme"
       type="text/css">.ColorScheme-Text { color:#aaaaaa; } .ColorScheme-Highlight { color:#5294e2; }</style>
  </defs>
  <path
     class="ColorScheme-Text"
     fill="currentColor"
     d="m 14.000005,9.5 c -1.6569,0 -3,1.3432 -3,3 0,1.6568 1.3431,3 3,3 1.6569,0 3,-1.3432 3,-3 0,-1.6568 -1.3431,-3 -3,-3 z m 4.9961,1.9453 0.0039,0.0039 c -0.38828,0 -0.75329,0.0893 -1.084,0.23828 0.0546,0.26205 0.08398,0.53309 0.08398,0.81055 0,1.1021 -0.45421,2.1042 -1.1836,2.8301 0.46,0.7 1.2597,1.1699 2.1797,1.1699 1.4327,0 2.5938,-1.1303 2.5938,-2.5254 0,-1.3951 -1.161,-2.5273 -2.5938,-2.5273 z m -4.9961,6.0508 c -6.0002,0.0034 -6,4.0039 -6,4.0039 v 1 h 12 v -1 c 0,0 0,-4.01 -6,-4 z m 5,0.002 V 17.5 c -0.1961,0 -0.37171,0.01258 -0.55273,0.02148 0.69756,0.39966 1.2291,0.87707 1.6035,1.377 0.94,1.26 0.94922,2.5996 0.94922,2.5996 h 3 v -1 c 0,0 0,-3 -5,-3 z"
     id="path5" />
</svg>
