<?xml version="1.0" encoding="UTF-8" standalone="no"?>
<svg
   width="32"
   height="32"
   version="1.1"
   viewBox="0 0 32 32"
   id="svg7"
   sodipodi:docname="folder-photo.svg"
   inkscape:version="1.1 (c68e22c387, 2021-05-23)"
   xmlns:inkscape="http://www.inkscape.org/namespaces/inkscape"
   xmlns:sodipodi="http://sodipodi.sourceforge.net/DTD/sodipodi-0.dtd"
   xmlns="http://www.w3.org/2000/svg"
   xmlns:svg="http://www.w3.org/2000/svg">
  <sodipodi:namedview
     id="namedview9"
     pagecolor="#ffffff"
     bordercolor="#666666"
     borderopacity="1.0"
     inkscape:pageshadow="2"
     inkscape:pageopacity="0.0"
     inkscape:pagecheckerboard="0"
     showgrid="false"
     inkscape:zoom="9.3409091"
     inkscape:cx="10.973236"
     inkscape:cy="10.973236"
     inkscape:window-width="1920"
     inkscape:window-height="1019"
     inkscape:window-x="0"
     inkscape:window-y="36"
     inkscape:window-maximized="1"
     inkscape:current-layer="svg7" />
  <defs
     id="defs3">
    <style
       id="current-color-scheme"
       type="text/css">.ColorScheme-Text { color:#aaaaaa; } .ColorScheme-Highlight { color:#5294e2; }</style>
  </defs>
  <path
     class="ColorScheme-Text"
     fill="currentColor"
     d="m 12.571429,9.142857 -1.142858,1.142857 H 10.285714 C 9.0194286,10.285714 8,11.305143 8,12.571428 v 8 c 0,1.266286 1.0194286,2.285715 2.285714,2.285715 H 21.714286 C 22.980571,22.857143 24,21.837714 24,20.571428 v -8 c 0,-1.266285 -1.019429,-2.285714 -2.285714,-2.285714 H 20.571429 L 19.428571,9.142857 Z m 0.946422,2.285714 h 4.964343 l 1.142857,1.142857 h 2.089258 v 8 H 10.285737 v -8 h 2.089257 z m 2.482172,1.142857 A 3.4285714,3.4285714 0 0 0 12.571451,16 3.4285714,3.4285714 0 0 0 16.000023,19.428571 3.4285714,3.4285714 0 0 0 19.428594,16 3.4285714,3.4285714 0 0 0 16.000023,12.571428 Z m 0,2.285715 A 1.1428571,1.1428571 0 0 1 17.14288,16 1.1428571,1.1428571 0 0 1 16.000023,17.142857 1.1428571,1.1428571 0 0 1 14.857166,16 1.1428571,1.1428571 0 0 1 16.000023,14.857143 Z"
     id="path5"
     style="stroke-width:1.14286" />
</svg>
