<?xml version="1.0" encoding="UTF-8" standalone="no"?>
<svg
   width="32"
   height="32"
   version="1.1"
   id="svg7"
   sodipodi:docname="folder-temp.svg"
   inkscape:version="1.1 (c68e22c387, 2021-05-23)"
   xmlns:inkscape="http://www.inkscape.org/namespaces/inkscape"
   xmlns:sodipodi="http://sodipodi.sourceforge.net/DTD/sodipodi-0.dtd"
   xmlns="http://www.w3.org/2000/svg"
   xmlns:svg="http://www.w3.org/2000/svg">
  <sodipodi:namedview
     id="namedview9"
     pagecolor="#ffffff"
     bordercolor="#666666"
     borderopacity="1.0"
     inkscape:pageshadow="2"
     inkscape:pageopacity="0.0"
     inkscape:pagecheckerboard="0"
     showgrid="false"
     inkscape:zoom="9.3409091"
     inkscape:cx="10.973236"
     inkscape:cy="10.973236"
     inkscape:window-width="1920"
     inkscape:window-height="1019"
     inkscape:window-x="0"
     inkscape:window-y="36"
     inkscape:window-maximized="1"
     inkscape:current-layer="svg7" />
  <defs
     id="defs3">
    <style
       id="current-color-scheme"
       type="text/css">.ColorScheme-Text { color:#aaaaaa; } .ColorScheme-Highlight { color:#5294e2; }</style>
  </defs>
  <path
     class="ColorScheme-Text"
     d="m 16,8 a 8,8 0 0 0 -8,8 8,8 0 0 0 8,8 8,8 0 0 0 8,-8 8,8 0 0 0 -8,-8 z m 0,2.285714 A 5.7142857,5.7142857 0 0 1 21.714286,16 5.7142857,5.7142857 0 0 1 16,21.714286 5.7142857,5.7142857 0 0 1 10.285714,16 5.7142857,5.7142857 0 0 1 16,10.285714 Z m 0,1.142857 c -0.633143,0 -1.142857,0.509715 -1.142857,1.142858 V 16 c 0,0.147063 0.03033,0.294686 0.08705,0.43304 0.04644,0.113863 0.120046,0.209463 0.198663,0.301337 0.01925,0.02249 0.02819,0.05274 0.04911,0.07366 4.58e-4,4.6e-4 -4.6e-4,0.0018 0,0.0023 l 2.426285,2.424114 c 0.447703,0.447703 1.168343,0.447703 1.616115,0 0.447771,-0.447703 0.447703,-1.168343 0,-1.616114 l -2.091543,-2.093731 v -2.953143 c 0,-0.633143 -0.509714,-1.142857 -1.142857,-1.142857 z"
     fill="currentColor"
     id="path5"
     style="stroke-width:1.14286" />
</svg>
