<?xml version="1.0" encoding="UTF-8" standalone="no"?>
<svg
   width="32"
   height="32"
   version="1.1"
   viewBox="0 0 32 32"
   id="svg11"
   sodipodi:docname="folder-games.svg"
   inkscape:version="1.1 (c68e22c387, 2021-05-23)"
   xmlns:inkscape="http://www.inkscape.org/namespaces/inkscape"
   xmlns:sodipodi="http://sodipodi.sourceforge.net/DTD/sodipodi-0.dtd"
   xmlns="http://www.w3.org/2000/svg"
   xmlns:svg="http://www.w3.org/2000/svg">
  <sodipodi:namedview
     id="namedview13"
     pagecolor="#ffffff"
     bordercolor="#666666"
     borderopacity="1.0"
     inkscape:pageshadow="2"
     inkscape:pageopacity="0.0"
     inkscape:pagecheckerboard="0"
     showgrid="false"
     inkscape:zoom="9.3409091"
     inkscape:cx="10.973236"
     inkscape:cy="10.973236"
     inkscape:window-width="1920"
     inkscape:window-height="1019"
     inkscape:window-x="0"
     inkscape:window-y="36"
     inkscape:window-maximized="1"
     inkscape:current-layer="svg11" />
  <defs
     id="defs3">
    <style
       id="current-color-scheme"
       type="text/css">.ColorScheme-Text { color:#aaaaaa; } .ColorScheme-Highlight { color:#5294e2; }</style>
  </defs>
  <g
     transform="translate(7.9998663,1.999985)"
     class="ColorScheme-Text"
     fill="currentColor"
     id="g9">
    <path
       d="M 11.17,8 C 10.61065,8.00248 10.034,8.1903 9.5997,8.4668 H 9.59775 c 0.1233,-0.078733 -0.3899,0.20703 -1.5918,0.20703 -1.2106,0 -1.7304,-0.28805 -1.6035,-0.20703 -0.40749,-0.2603 -1.0397,-0.46094 -1.5625,-0.46094 -0.52277,0 -0.9962,0.12338 -1.4473,0.33203 L 3.38288,8.3418 3.37311,8.34766 c -1.8464,0.87748 -2.4915,2.5397 -2.9648,4.4199 v 0.0039 c -0.2028,0.81241 -0.3246,1.6795 -0.37891,2.498 -0.054304,0.8186 -0.099884,1.485 0.13281,2.3477 l 0.001953,0.0059 0.001953,0.0039 c 0.14483,0.5269 0.39428,1.1337 0.95508,1.6406 0.5608,0.50688 1.3653,0.73242 1.9766,0.73242 h 0.035156 c 1.9798,-0.03371 3.0764,-1.232 3.9355,-2.6074 -0.27201,0.35787 0.25829,-0.06369 0.88281,-0.04687 l 0.060547,0.002 0.060547,-0.002 c 0.59876,-0.02021 1.1298,0.40151 0.85742,0.04492 0.8601,1.3761 1.9688,2.5759 3.9453,2.6094 h 0.03321 c 0.61238,0 1.4174,-0.23033 1.9746,-0.73633 0.55725,-0.506 0.80616,-1.1091 0.95117,-1.6367 l 0.002,-0.0039 0.002,-0.0059 c 0.23269,-0.86267 0.18712,-1.5291 0.13281,-2.3477 -0.0543,-0.81859 -0.1761,-1.6856 -0.37891,-2.498 v -0.0039 c -0.473,-1.8783 -1.1188,-3.5378 -2.9609,-4.416 -0.40794,-0.19662 -0.90082,-0.35017 -1.4512,-0.34961 -0.0037,3.8e-6 -0.0061,-0.00197 -0.0098,-0.00195 z m 0.0098,2 c 0.18148,-8.64e-4 0.37416,0.04874 0.58789,0.15234 0.77243,0.3671 1.4948,1.5546 1.8848,3.1035 0.32997,1.3218 0.44889,3.1189 0.25391,3.8418 -0.17248,0.62759 -0.47306,0.90234 -0.99805,0.90234 -0.78743,-0.01333 -1.7686,-0.79122 -2.3984,-1.8398 -0.44996,-0.58095 -1.499,-0.84642 -2.5039,-0.8125 -1.0124,-0.02725 -2.0656,0.23153 -2.5156,0.8125 -0.62995,1.0486 -1.6126,1.8266 -2.3926,1.8398 -0.53241,0 -0.8314,-0.27476 -1.0039,-0.90234 -0.19498,-0.72286 -0.076068,-2.52 0.25391,-3.8418 0.38997,-1.549 1.1123,-2.7364 1.8848,-3.1035 0.21748,-0.1006 0.42744,-0.14648 0.60742,-0.14648 0.17998,0 0.32884,0.04589 0.48633,0.14648 0.39747,0.25383 1.2249,0.52148 2.6797,0.52148 1.4474,0 2.2704,-0.26765 2.668,-0.52148 C 10.83156,10.05208 10.9992,10.0008 11.17994,10 Z"
       id="path5" />
    <path
       d="m 4,11 h 1 v 1 h 1 v 1 H 5 v 1 H 4 V 13 H 3 v -1 h 1 z m 7.5,0 C 11.77614,11 12,11.22386 12,11.5 12,11.77614 11.77614,12 11.5,12 11.22386,12 11,11.77614 11,11.5 11,11.22386 11.22386,11 11.5,11 Z m -1,1 C 10.77614,12 11,12.22386 11,12.5 11,12.77614 10.77614,13 10.5,13 10.22386,13 10,12.77614 10,12.5 10,12.22386 10.22386,12 10.5,12 Z m 2,0 C 12.77614,12 13,12.22386 13,12.5 13,12.77614 12.77614,13 12.5,13 12.22386,13 12,12.77614 12,12.5 12,12.22386 12.22386,12 12.5,12 Z m -1,1 C 11.77614,13 12,13.22386 12,13.5 12,13.77614 11.77614,14 11.5,14 11.22386,14 11,13.77614 11,13.5 11,13.22386 11.22386,13 11.5,13 Z"
       id="path7" />
  </g>
</svg>
