<?xml version="1.0" encoding="UTF-8" standalone="no"?>
<svg
   width="32"
   height="32"
   version="1.1"
   id="svg7"
   sodipodi:docname="folder-bookmark.svg"
   inkscape:version="1.1 (c68e22c387, 2021-05-23)"
   xmlns:inkscape="http://www.inkscape.org/namespaces/inkscape"
   xmlns:sodipodi="http://sodipodi.sourceforge.net/DTD/sodipodi-0.dtd"
   xmlns="http://www.w3.org/2000/svg"
   xmlns:svg="http://www.w3.org/2000/svg">
  <sodipodi:namedview
     id="namedview9"
     pagecolor="#ffffff"
     bordercolor="#666666"
     borderopacity="1.0"
     inkscape:pageshadow="2"
     inkscape:pageopacity="0.0"
     inkscape:pagecheckerboard="0"
     showgrid="false"
     inkscape:zoom="9.3409091"
     inkscape:cx="10.973236"
     inkscape:cy="10.973236"
     inkscape:window-width="1920"
     inkscape:window-height="1019"
     inkscape:window-x="0"
     inkscape:window-y="36"
     inkscape:window-maximized="1"
     inkscape:current-layer="svg7" />
  <defs
     id="defs3">
    <style
       id="current-color-scheme"
       type="text/css">.ColorScheme-Text { color:#aaaaaa; } .ColorScheme-Highlight { color:#5294e2; }</style>
  </defs>
  <path
     class="ColorScheme-Text"
     d="M 16.005782,8.2894619 A 2.0008892,2.0008892 0 0 0 14.134037,9.5712034 L 13.00865,12.486308 9.8923761,12.652385 a 2.0008892,2.0008892 0 0 0 -1.1565984,3.548122 l 2.4246353,1.975281 -0.801056,3.02054 a 2.0008892,2.0008892 0 0 0 3.022541,2.192155 L 16,21.692599 l 2.618102,1.695884 a 2.0008892,2.0008892 0 0 0 3.022541,-2.192155 l -0.801056,-3.02054 2.424635,-1.975281 A 2.0008892,2.0008892 0 0 0 22.107624,12.652385 L 18.99135,12.486308 17.865962,9.5712034 a 2.0008892,2.0008892 0 0 0 -1.86004,-1.2817415 z m -0.0059,2.0006891 1.590348,4.126421 4.411719,0.232501 -3.428881,2.790061 1.13319,4.26907 -3.706376,-2.399226 -3.706377,2.399226 1.133191,-4.26907 -3.4288836,-2.790061 4.4117196,-0.232501 z"
     fill="currentColor"
     id="path5"
     style="stroke-width:1.00034" />
</svg>
