<?xml version="1.0" encoding="UTF-8" standalone="no"?>
<svg
   width="32"
   height="32"
   version="1.1"
   viewBox="0 0 32 32"
   id="svg7"
   sodipodi:docname="user-home.svg"
   inkscape:version="1.1 (c68e22c387, 2021-05-23)"
   xmlns:inkscape="http://www.inkscape.org/namespaces/inkscape"
   xmlns:sodipodi="http://sodipodi.sourceforge.net/DTD/sodipodi-0.dtd"
   xmlns="http://www.w3.org/2000/svg"
   xmlns:svg="http://www.w3.org/2000/svg">
  <sodipodi:namedview
     id="namedview9"
     pagecolor="#ffffff"
     bordercolor="#666666"
     borderopacity="1.0"
     inkscape:pageshadow="2"
     inkscape:pageopacity="0.0"
     inkscape:pagecheckerboard="0"
     showgrid="false"
     inkscape:zoom="6.6050202"
     inkscape:cx="10.976499"
     inkscape:cy="10.976499"
     inkscape:window-width="1920"
     inkscape:window-height="1019"
     inkscape:window-x="0"
     inkscape:window-y="36"
     inkscape:window-maximized="1"
     inkscape:current-layer="svg7" />
  <defs
     id="defs3">
    <style
       id="current-color-scheme"
       type="text/css">.ColorScheme-Text { color:#aaaaaa; } .ColorScheme-Highlight { color:#5294e2; }</style>
  </defs>
  <path
     class="ColorScheme-Text"
     d="m 15.99994,8.437567 c -0.307186,0 -0.614275,0.1166877 -0.849657,0.35207 l -6.7972095,6.797209 c -0.4707647,0.470765 -0.4707647,1.228526 0,1.699363 0.2844368,0.284437 0.6699869,0.37614 1.037427,0.316859 v 5.959365 H 11.793955 V 15.54463 L 16,11.338585 20.206045,15.54463 v 8.017803 H 22.6095 v -5.959365 c 0.36744,0.05928 0.75299,-0.03242 1.037427,-0.316859 0.470764,-0.470765 0.470764,-1.228526 0,-1.699363 L 16.849717,8.789637 C 16.614335,8.5542547 16.307246,8.437567 16.00006,8.437567 Z m 0,9.116182 c -0.998635,0 -1.802591,0.803956 -1.802591,1.802591 v 4.206045 h 3.605182 V 19.35634 c 0,-0.998635 -0.803956,-1.802591 -1.802591,-1.802591 z"
     fill="currentColor"
     id="path5"
     style="stroke-width:1.20173" />
</svg>
