<?xml version="1.0" encoding="UTF-8" standalone="no"?>
<!-- Generator: Gravit.io -->

<svg
   style="isolation:isolate"
   viewBox="0 0 48 48"
   width="48pt"
   height="48pt"
   version="1.1"
   id="svg10"
   sodipodi:docname="folder-videos.svg"
   inkscape:version="1.1.2 (0a00cf5339, 2022-02-04)"
   xmlns:inkscape="http://www.inkscape.org/namespaces/inkscape"
   xmlns:sodipodi="http://sodipodi.sourceforge.net/DTD/sodipodi-0.dtd"
   xmlns="http://www.w3.org/2000/svg"
   xmlns:svg="http://www.w3.org/2000/svg">
  <defs
     id="defs14">
    <linearGradient
       id="linearGradient4227">
      <stop
         id="stop00"
         offset="0.0"
         style="stop-color:#f7aa94;stop-opacity:1.0" />
      <stop
         id="stop01"
         offset="0.5"
         style="stop-color:#f07cac;stop-opacity:1.0" />
      <stop
         id="stop02"
         offset="1.0"
         style="stop-color:#ed72c7;stop-opacity:1.0" />
    </linearGradient>
  </defs>
  <sodipodi:namedview
     id="namedview12"
     pagecolor="#ffffff"
     bordercolor="#666666"
     borderopacity="1.0"
     inkscape:pageshadow="2"
     inkscape:pageopacity="0.0"
     inkscape:pagecheckerboard="0"
     inkscape:document-units="pt"
     showgrid="false"
     inkscape:zoom="8.9375"
     inkscape:cx="7.1048951"
     inkscape:cy="32"
     inkscape:window-width="1920"
     inkscape:window-height="1025"
     inkscape:window-x="0"
     inkscape:window-y="0"
     inkscape:window-maximized="1"
     inkscape:current-layer="svg10" />
  <path
     d=" M 1.247 13.3 L 1.247 41.208 C 1.247 42.864 2.591 44.208 4.247 44.208 L 43.229 44.208 C 44.885 44.208 46.229 42.864 46.229 41.208 L 46.229 17.465 C 46.229 15.809 44.885 14.464 43.229 14.463 L 21.116 14.446 C 20.564 14.445 19.799 14.128 19.409 13.737 L 17.299 11.623 C 16.519 10.842 14.99 10.214 13.886 10.221 L 4.247 10.281 C 2.591 10.292 1.247 11.644 1.247 13.3 Z "
     id="path2"
     style="fill:#637993;fill-opacity:1" />
  <path
     d=" M 6.5 16 L 41.5 16 C 42.604 16 43.5 16.896 43.5 18 L 43.5 28 C 43.5 29.104 42.604 30 41.5 30 L 6.5 30 C 5.396 30 4.5 29.104 4.5 28 L 4.5 18 C 4.5 16.896 5.396 16 6.5 16 Z "
     id="path4"
     style="fill:#2e3440;fill-opacity:1;opacity:0.2" />
  <path
     d="m 1.247,17.965 v 25.243 c 0,1.656 1.344,3 3,3 h 38.982 c 1.656,0 3,-1.344 3,-3 V 20.965 c 0,-1.656 -1.344,-3.001 -3,-3.002 L 21.116,17.946 c -0.552,-0.001 -1.448,-0.001 -2,0 z"
     id="path6"
     style="fill:#708ba7;fill-opacity:1"
     sodipodi:nodetypes="cssssscccc" />
  <path
     d=" M 20.909 37.714 C 21.101 37.714 21.286 37.781 21.423 37.902 C 21.557 38.02 21.633 38.182 21.633 38.351 C 21.633 38.52 21.557 38.683 21.423 38.801 C 21.286 38.922 21.101 38.989 20.909 38.989 L 17.615 38.989 C 16.303 38.989 15.238 37.924 15.238 36.612 L 15.238 26.377 C 15.238 25.065 16.303 24 17.615 24 L 29.861 24 C 31.173 24 32.238 25.065 32.238 26.377 L 32.238 36.612 C 32.238 37.924 31.173 38.989 29.861 38.989 L 26.567 38.989 C 26.375 38.989 26.19 38.922 26.053 38.801 C 25.919 38.683 25.843 38.52 25.843 38.351 C 25.843 38.182 25.919 38.02 26.053 37.902 C 26.19 37.781 26.375 37.714 26.567 37.714 L 29.093 37.714 C 30.03 37.714 30.791 36.953 30.791 36.015 L 30.791 26.974 C 30.791 26.037 30.03 25.276 29.093 25.276 L 18.383 25.276 C 17.446 25.276 16.685 26.037 16.685 26.974 L 16.685 36.015 C 16.685 36.953 17.446 37.714 18.383 37.714 L 20.909 37.714 Z  M 24.4 32.35 L 23.708 32.716 C 22.817 33.188 22.093 32.752 22.093 31.743 L 22.093 31.246 C 22.093 30.237 22.817 29.801 23.708 30.273 L 24.4 30.639 C 25.292 31.111 25.292 31.878 24.4 32.35 L 24.4 32.35 Z  M 26.876 32.692 L 22.246 35.143 C 21.354 35.615 20.63 35.18 20.63 34.171 L 20.63 28.818 C 20.63 27.81 21.354 27.374 22.246 27.846 L 26.876 30.297 C 28.124 30.958 28.124 32.031 26.876 32.692 L 26.876 32.692 Z "
     fill-rule="evenodd"
     id="path8"
     style="fill:#2e3440;fill-opacity:1;opacity:0.2" />
</svg>
