<?xml version="1.0" encoding="UTF-8" standalone="no"?>
<!-- Generator: Gravit.io -->

<svg
   style="isolation:isolate"
   viewBox="0 0 48 48"
   width="48pt"
   height="48pt"
   version="1.1"
   id="svg10"
   sodipodi:docname="folder-documents.svg"
   inkscape:version="1.1.2 (0a00cf5339, 2022-02-04)"
   xmlns:inkscape="http://www.inkscape.org/namespaces/inkscape"
   xmlns:sodipodi="http://sodipodi.sourceforge.net/DTD/sodipodi-0.dtd"
   xmlns="http://www.w3.org/2000/svg"
   xmlns:svg="http://www.w3.org/2000/svg">
  <defs
     id="defs14">
    <linearGradient
       id="linearGradient4227">
      <stop
         id="stop00"
         offset="0.0"
         style="stop-color:#f7aa94;stop-opacity:1.0" />
      <stop
         id="stop01"
         offset="0.5"
         style="stop-color:#f07cac;stop-opacity:1.0" />
      <stop
         id="stop02"
         offset="1.0"
         style="stop-color:#ed72c7;stop-opacity:1.0" />
    </linearGradient>
  </defs>
  <sodipodi:namedview
     id="namedview12"
     pagecolor="#ffffff"
     bordercolor="#666666"
     borderopacity="1.0"
     inkscape:pageshadow="2"
     inkscape:pageopacity="0.0"
     inkscape:pagecheckerboard="0"
     inkscape:document-units="pt"
     showgrid="false"
     inkscape:zoom="8.9375"
     inkscape:cx="7.1048951"
     inkscape:cy="31.776224"
     inkscape:window-width="1920"
     inkscape:window-height="1025"
     inkscape:window-x="0"
     inkscape:window-y="0"
     inkscape:window-maximized="1"
     inkscape:current-layer="svg10" />
  <path
     d=" M 1.247 13.3 L 1.247 41.208 C 1.247 42.864 2.591 44.208 4.247 44.208 L 43.229 44.208 C 44.885 44.208 46.229 42.864 46.229 41.208 L 46.229 17.465 C 46.229 15.809 44.885 14.464 43.229 14.463 L 21.116 14.446 C 20.564 14.445 19.799 14.128 19.409 13.737 L 17.299 11.623 C 16.519 10.842 14.99 10.214 13.886 10.221 L 4.247 10.281 C 2.591 10.292 1.247 11.644 1.247 13.3 Z "
     id="path2"
     style="fill:#637993;fill-opacity:1" />
  <path
     d=" M 6.5 16 L 41.5 16 C 42.604 16 43.5 16.896 43.5 18 L 43.5 28 C 43.5 29.104 42.604 30 41.5 30 L 6.5 30 C 5.396 30 4.5 29.104 4.5 28 L 4.5 18 C 4.5 16.896 5.396 16 6.5 16 Z "
     id="path4"
     style="fill:#2e3440;fill-opacity:1;opacity:0.2" />
  <path
     d="m 1.247,17.965 v 25.243 c 0,1.656 1.344,3 3,3 h 38.982 c 1.656,0 3,-1.344 3,-3 V 20.965 c 0,-1.656 -1.344,-3.001 -3,-3.002 L 21.116,17.946 c -0.552,-0.001 -1.448,-0.001 -2,0 z"
     id="path6"
     style="fill:#708ba7;fill-opacity:1"
     sodipodi:nodetypes="cssssscccc" />
  <path
     d=" M 23.032 25.478 L 23.032 25.478 C 23.44 25.478 23.771 25.147 23.771 24.739 L 23.771 24.739 C 23.771 24.331 23.44 24 23.032 24 L 23.032 24 L 17.086 24 C 16.066 24 15.238 24.828 15.238 25.848 L 15.238 39.152 C 15.238 40.172 16.066 41 17.086 41 L 30.39 41 C 31.41 41 32.238 40.172 32.238 39.152 L 32.238 31.794 C 32.238 31.386 31.907 31.055 31.499 31.055 L 26.661 31.055 C 26.457 31.055 26.292 30.889 26.292 30.685 L 26.292 27.385 C 26.292 27.181 26.421 27.119 26.58 27.246 L 30.298 30.22 L 30.298 30.22 C 30.616 30.475 31.081 30.423 31.336 30.105 L 31.336 30.105 C 31.591 29.787 31.54 29.322 31.222 29.067 L 31.222 29.067 L 25.679 24.633 C 25.201 24.251 24.813 24.438 24.813 25.05 L 24.813 31.425 C 24.813 32.036 25.31 32.533 25.922 32.533 L 30.021 32.533 C 30.429 32.533 30.76 32.864 30.76 33.272 L 30.76 38.413 C 30.76 39.025 30.263 39.522 29.651 39.522 L 17.825 39.522 C 17.213 39.522 16.716 39.025 16.716 38.413 L 16.716 26.587 C 16.716 25.975 17.213 25.478 17.825 25.478 L 23.032 25.478 Z "
     id="path8"
     style="fill:#2e3440;fill-opacity:1;opacity:0.2" />
</svg>
