<?xml version="1.0" encoding="UTF-8" standalone="no"?>
<!-- Generator: Gravit.io -->

<svg
   style="isolation:isolate"
   viewBox="0 0 48 48"
   width="48pt"
   height="48pt"
   version="1.1"
   id="svg10"
   sodipodi:docname="folder-pictures.svg"
   inkscape:version="1.1.2 (0a00cf5339, 2022-02-04)"
   xmlns:inkscape="http://www.inkscape.org/namespaces/inkscape"
   xmlns:sodipodi="http://sodipodi.sourceforge.net/DTD/sodipodi-0.dtd"
   xmlns="http://www.w3.org/2000/svg"
   xmlns:svg="http://www.w3.org/2000/svg">
  <defs
     id="defs14">
    <linearGradient
       id="linearGradient4227">
      <stop
         id="stop00"
         offset="0.0"
         style="stop-color:#f7aa94;stop-opacity:1.0" />
      <stop
         id="stop01"
         offset="0.5"
         style="stop-color:#f07cac;stop-opacity:1.0" />
      <stop
         id="stop02"
         offset="1.0"
         style="stop-color:#ed72c7;stop-opacity:1.0" />
    </linearGradient>
  </defs>
  <sodipodi:namedview
     id="namedview12"
     pagecolor="#ffffff"
     bordercolor="#666666"
     borderopacity="1.0"
     inkscape:pageshadow="2"
     inkscape:pageopacity="0.0"
     inkscape:pagecheckerboard="0"
     inkscape:document-units="pt"
     showgrid="false"
     inkscape:zoom="8.9375"
     inkscape:cx="7.1048951"
     inkscape:cy="31.776224"
     inkscape:window-width="1920"
     inkscape:window-height="1025"
     inkscape:window-x="0"
     inkscape:window-y="0"
     inkscape:window-maximized="1"
     inkscape:current-layer="svg10" />
  <path
     d=" M 1.247 13.3 L 1.247 41.208 C 1.247 42.864 2.591 44.208 4.247 44.208 L 43.229 44.208 C 44.885 44.208 46.229 42.864 46.229 41.208 L 46.229 17.465 C 46.229 15.809 44.885 14.464 43.229 14.463 L 21.116 14.446 C 20.564 14.445 19.799 14.128 19.409 13.737 L 17.299 11.623 C 16.519 10.842 14.99 10.214 13.886 10.221 L 4.247 10.281 C 2.591 10.292 1.247 11.644 1.247 13.3 Z "
     id="path2"
     style="fill:#637993;fill-opacity:1" />
  <path
     d=" M 6.5 16 L 41.5 16 C 42.604 16 43.5 16.896 43.5 18 L 43.5 28 C 43.5 29.104 42.604 30 41.5 30 L 6.5 30 C 5.396 30 4.5 29.104 4.5 28 L 4.5 18 C 4.5 16.896 5.396 16 6.5 16 Z "
     id="path4"
     style="fill:#2e3440;fill-opacity:1;opacity:0.2" />
  <path
     d="m 1.247,17.965 v 25.243 c 0,1.656 1.344,3 3,3 h 38.982 c 1.656,0 3,-1.344 3,-3 V 20.965 c 0,-1.656 -1.344,-3.001 -3,-3.002 L 21.116,17.946 c -0.552,-0.001 -1.448,-0.001 -2,0 z"
     id="path6"
     style="fill:#708ba7;fill-opacity:1"
     sodipodi:nodetypes="cssssscccc" />
  <path
     d=" M 15.995 37.104 C 16.046 37.607 16.471 38 16.988 38 L 30.488 38 C 31.04 38 31.488 37.552 31.488 37 L 31.488 32.483 L 26.946 35.593 C 26.263 36.06 25.233 35.965 24.647 35.379 L 22.092 32.824 C 21.896 32.628 21.565 32.612 21.351 32.786 L 16.268 36.94 L 16.268 36.94 C 16.189 37.019 16.096 37.077 15.995 37.104 L 15.995 37.104 Z  M 15.988 35.219 L 15.988 28.91 C 15.988 28.358 16.436 27.91 16.988 27.91 L 19.763 27.91 L 19.763 27.91 C 20.315 27.91 20.763 27.462 20.763 26.91 L 20.763 26.91 C 20.763 26.358 20.315 25.91 19.763 25.91 L 19.763 25.91 L 15.488 25.91 C 14.66 25.91 13.988 26.582 13.988 27.41 L 13.988 38.5 C 13.988 39.328 14.66 40 15.488 40 L 31.988 40 C 32.816 40 33.488 39.328 33.488 38.5 L 33.488 27.41 C 33.488 26.582 32.816 25.91 31.988 25.91 L 23.943 25.91 L 23.943 25.91 C 23.391 25.91 22.943 26.358 22.943 26.91 L 22.943 26.91 C 22.943 27.462 23.391 27.91 23.943 27.91 L 23.943 27.91 L 30.488 27.91 C 31.04 27.91 31.488 28.358 31.488 28.91 L 31.488 30.702 C 31.398 30.734 31.313 30.783 31.238 30.85 L 31.238 30.85 L 26.188 34.109 C 25.956 34.259 25.61 34.222 25.414 34.026 L 22.799 31.411 C 22.213 30.825 21.225 30.784 20.593 31.319 L 15.988 35.219 L 15.988 35.219 Z  M 26.738 30.243 C 26.738 29.553 27.298 28.993 27.988 28.993 C 28.678 28.993 29.238 29.553 29.238 30.243 C 29.238 30.933 28.678 31.493 27.988 31.493 C 27.298 31.493 26.738 30.933 26.738 30.243 Z "
     fill-rule="evenodd"
     id="path8"
     style="fill:#2e3440;fill-opacity:1;opacity:0.2" />
</svg>
