<?xml version="1.0" encoding="UTF-8" standalone="no"?>
<!-- Generator: Gravit.io -->

<svg
   style="isolation:isolate"
   viewBox="0 0 48 48"
   width="48pt"
   height="48pt"
   version="1.1"
   id="svg10"
   sodipodi:docname="folder-publicshare.svg"
   inkscape:version="1.1.2 (0a00cf5339, 2022-02-04)"
   xmlns:inkscape="http://www.inkscape.org/namespaces/inkscape"
   xmlns:sodipodi="http://sodipodi.sourceforge.net/DTD/sodipodi-0.dtd"
   xmlns="http://www.w3.org/2000/svg"
   xmlns:svg="http://www.w3.org/2000/svg">
  <defs
     id="defs14">
    <linearGradient
       id="linearGradient4227">
      <stop
         id="stop00"
         offset="0.0"
         style="stop-color:#f7aa94;stop-opacity:1.0" />
      <stop
         id="stop01"
         offset="0.5"
         style="stop-color:#f07cac;stop-opacity:1.0" />
      <stop
         id="stop02"
         offset="1.0"
         style="stop-color:#ed72c7;stop-opacity:1.0" />
    </linearGradient>
  </defs>
  <sodipodi:namedview
     id="namedview12"
     pagecolor="#ffffff"
     bordercolor="#666666"
     borderopacity="1.0"
     inkscape:pageshadow="2"
     inkscape:pageopacity="0.0"
     inkscape:pagecheckerboard="0"
     inkscape:document-units="pt"
     showgrid="false"
     inkscape:zoom="8.9375"
     inkscape:cx="7.1048951"
     inkscape:cy="31.776224"
     inkscape:window-width="1920"
     inkscape:window-height="1025"
     inkscape:window-x="0"
     inkscape:window-y="0"
     inkscape:window-maximized="1"
     inkscape:current-layer="svg10" />
  <path
     d=" M 1.247 13.3 L 1.247 41.208 C 1.247 42.864 2.591 44.208 4.247 44.208 L 43.229 44.208 C 44.885 44.208 46.229 42.864 46.229 41.208 L 46.229 17.465 C 46.229 15.809 44.885 14.464 43.229 14.463 L 21.116 14.446 C 20.564 14.445 19.799 14.128 19.409 13.737 L 17.299 11.623 C 16.519 10.842 14.99 10.214 13.886 10.221 L 4.247 10.281 C 2.591 10.292 1.247 11.644 1.247 13.3 Z "
     id="path2"
     style="fill:#637993;fill-opacity:1" />
  <path
     d=" M 6.5 16 L 41.5 16 C 42.604 16 43.5 16.896 43.5 18 L 43.5 28 C 43.5 29.104 42.604 30 41.5 30 L 6.5 30 C 5.396 30 4.5 29.104 4.5 28 L 4.5 18 C 4.5 16.896 5.396 16 6.5 16 Z "
     id="path4"
     style="fill:#2e3440;fill-opacity:1;opacity:0.2" />
  <path
     d="m 1.247,17.965 v 25.243 c 0,1.656 1.344,3 3,3 h 38.982 c 1.656,0 3,-1.344 3,-3 V 20.965 c 0,-1.656 -1.344,-3.001 -3,-3.002 L 21.116,17.946 c -0.552,-0.001 -1.448,-0.001 -2,0 z"
     id="path6"
     style="fill:#708ba7;fill-opacity:1"
     sodipodi:nodetypes="cssssscccc" />
  <path
     d=" M 21.654 31.489 L 21.644 31.504 L 22.274 31.948 L 30.377 37.679 C 30.551 37.802 30.693 38.075 30.693 38.288 L 30.693 39.432 C 30.693 39.645 30.519 39.818 30.306 39.818 L 17.17 39.818 C 16.957 39.818 16.783 39.645 16.783 39.432 L 16.783 38.315 C 16.783 38.102 16.93 37.837 17.11 37.723 L 21.339 35.062 L 21.339 35.062 C 21.699 34.836 21.808 34.359 21.582 33.998 L 21.582 33.998 C 21.356 33.636 20.878 33.528 20.516 33.756 L 20.516 33.756 L 16.22 36.455 C 15.678 36.795 15.238 37.591 15.238 38.23 L 15.238 40.205 C 15.238 40.844 15.757 41.364 16.397 41.364 L 31.079 41.364 C 31.719 41.364 32.238 40.844 32.238 40.205 L 32.238 38.257 C 32.238 37.618 31.814 36.798 31.291 36.429 L 24.885 31.903 C 25.524 31.712 26.112 31.366 26.588 30.89 C 27.348 30.13 27.768 29.1 27.768 28.03 C 27.768 26.96 27.348 25.94 26.588 25.18 C 25.838 24.43 24.808 24 23.738 24 C 22.668 24 21.638 24.43 20.888 25.18 C 20.128 25.94 19.708 26.96 19.708 28.03 L 19.708 28.03 C 19.708 29.1 20.128 30.13 20.888 30.89 C 21.119 31.121 21.377 31.322 21.654 31.489 Z  M 22.52 30.258 L 22.533 30.24 L 22.652 30.325 C 22.989 30.484 23.36 30.57 23.738 30.57 C 24.408 30.57 25.058 30.3 25.528 29.83 C 26.008 29.35 26.268 28.71 26.268 28.03 C 26.268 27.36 26.008 26.72 25.528 26.24 C 25.058 25.77 24.408 25.5 23.738 25.5 C 23.068 25.5 22.418 25.77 21.948 26.24 C 21.468 26.72 21.208 27.36 21.208 28.03 L 21.208 28.03 C 21.208 28.71 21.468 29.35 21.948 29.83 C 22.118 30 22.311 30.143 22.52 30.258 Z "
     fill-rule="evenodd"
     id="path8"
     style="fill:#2e3440;fill-opacity:1;opacity:0.2" />
</svg>
