<?xml version="1.0" encoding="UTF-8" standalone="no"?>
<!-- Generator: Gravit.io -->

<svg
   style="isolation:isolate"
   viewBox="0 0 48 48"
   width="48pt"
   height="48pt"
   version="1.1"
   id="svg10"
   sodipodi:docname="user-desktop.svg"
   inkscape:version="1.1.2 (0a00cf5339, 2022-02-04)"
   xmlns:inkscape="http://www.inkscape.org/namespaces/inkscape"
   xmlns:sodipodi="http://sodipodi.sourceforge.net/DTD/sodipodi-0.dtd"
   xmlns="http://www.w3.org/2000/svg"
   xmlns:svg="http://www.w3.org/2000/svg">
  <defs
     id="defs14">
    <linearGradient
       id="linearGradient4227">
      <stop
         id="stop00"
         offset="0.0"
         style="stop-color:#f7aa94;stop-opacity:1.0" />
      <stop
         id="stop01"
         offset="0.5"
         style="stop-color:#f07cac;stop-opacity:1.0" />
      <stop
         id="stop02"
         offset="1.0"
         style="stop-color:#ed72c7;stop-opacity:1.0" />
    </linearGradient>
  </defs>
  <sodipodi:namedview
     id="namedview12"
     pagecolor="#ffffff"
     bordercolor="#666666"
     borderopacity="1.0"
     inkscape:pageshadow="2"
     inkscape:pageopacity="0.0"
     inkscape:pagecheckerboard="0"
     inkscape:document-units="pt"
     showgrid="false"
     inkscape:zoom="8.9375"
     inkscape:cx="-15.272727"
     inkscape:cy="31.776224"
     inkscape:window-width="1920"
     inkscape:window-height="1025"
     inkscape:window-x="0"
     inkscape:window-y="0"
     inkscape:window-maximized="1"
     inkscape:current-layer="svg10" />
  <path
     d=" M 1.247 13.3 L 1.247 41.208 C 1.247 42.864 2.591 44.208 4.247 44.208 L 43.229 44.208 C 44.885 44.208 46.229 42.864 46.229 41.208 L 46.229 17.465 C 46.229 15.809 44.885 14.464 43.229 14.463 L 21.116 14.446 C 20.564 14.445 19.799 14.128 19.409 13.737 L 17.299 11.623 C 16.519 10.842 14.99 10.214 13.886 10.221 L 4.247 10.281 C 2.591 10.292 1.247 11.644 1.247 13.3 Z "
     id="path2"
     style="fill:#637993;fill-opacity:1" />
  <path
     d=" M 6.5 16 L 41.5 16 C 42.604 16 43.5 16.896 43.5 18 L 43.5 28 C 43.5 29.104 42.604 30 41.5 30 L 6.5 30 C 5.396 30 4.5 29.104 4.5 28 L 4.5 18 C 4.5 16.896 5.396 16 6.5 16 Z "
     id="path4"
     style="fill:#2e3440;fill-opacity:1;opacity:0.2" />
  <path
     d="m 1.247,17.965 v 25.243 c 0,1.656 1.344,3 3,3 h 38.982 c 1.656,0 3,-1.344 3,-3 V 20.965 c 0,-1.656 -1.344,-3.001 -3,-3.002 L 21.116,17.946 c -0.552,-0.001 -1.448,-0.001 -2,0 z"
     id="path6"
     style="fill:#708ba7;fill-opacity:1"
     sodipodi:nodetypes="cssssscccc" />
  <path
     d=" M 23.283 35.591 L 23.283 38.682 L 28.761 38.682 C 29.187 38.682 29.533 39.028 29.533 39.455 L 29.533 39.455 C 29.533 39.881 29.187 40.227 28.761 40.227 L 18.715 40.227 C 18.289 40.227 17.943 39.881 17.943 39.455 L 17.943 39.455 C 17.943 39.028 18.289 38.682 18.715 38.682 L 21.738 38.682 L 21.738 38.682 L 21.738 35.591 L 17.17 35.591 C 16.104 35.591 15.238 34.725 15.238 33.659 L 15.238 25.932 C 15.238 24.866 16.104 24 17.17 24 L 30.306 24 C 31.372 24 32.238 24.866 32.238 25.932 L 32.238 27.091 L 32.238 27.091 C 32.238 27.517 31.892 27.864 31.465 27.864 L 31.465 27.864 C 31.039 27.864 30.693 27.517 30.693 27.091 L 30.693 27.091 L 30.693 25.932 C 30.693 25.719 30.519 25.545 30.306 25.545 L 17.17 25.545 C 16.957 25.545 16.783 25.719 16.783 25.932 L 16.783 33.659 C 16.783 33.872 16.957 34.045 17.17 34.045 L 21.738 34.045 L 21.738 34.045 L 23.283 34.045 L 23.283 34.045 L 24.238 34.045 L 24.238 34.045 L 24.238 34.045 L 25.783 34.045 L 25.783 34.045 L 30.306 34.045 C 30.519 34.045 30.693 33.872 30.693 33.659 L 30.693 30.568 L 30.693 30.568 C 30.693 30.142 31.039 29.795 31.465 29.795 L 31.465 29.795 C 31.892 29.795 32.238 30.142 32.238 30.568 L 32.238 30.568 L 32.238 33.659 C 32.238 34.725 31.372 35.591 30.306 35.591 L 25.783 35.591 L 25.783 38.682 L 24.238 38.682 L 24.238 35.591 L 23.283 35.591 Z "
     fill-rule="evenodd"
     id="path8"
     style="fill:#2e3440;fill-opacity:1;opacity:0.2" />
</svg>
